<svg width="1445" height="262" viewBox="0 0 1445 262" fill="none" xmlns="http://www.w3.org/2000/svg">
<g opacity="0.03">
<line x1="1440.5" y1="0.5" x2="0.5" y2="0.5" stroke="white"/>
<line x1="1440.5" y1="29.5" x2="0.5" y2="29.5" stroke="white"/>
<line x1="1440.5" y1="58.5" x2="0.5" y2="58.5" stroke="white"/>
<line x1="1440.5" y1="87.5" x2="0.5" y2="87.5" stroke="white"/>
<line x1="1440.5" y1="116.5" x2="0.5" y2="116.5" stroke="white"/>
<line x1="1440.5" y1="145.5" x2="0.5" y2="145.5" stroke="white"/>
<line x1="1440.5" y1="174.5" x2="0.5" y2="174.5" stroke="white"/>
<line x1="1440.5" y1="203.5" x2="0.5" y2="203.5" stroke="white"/>
<line x1="1440.5" y1="232.5" x2="0.5" y2="232.5" stroke="white"/>
<line x1="1440.5" y1="261.5" x2="0.5" y2="261.5" stroke="white"/>
</g>
<g opacity="0.03">
<line x1="14" y1="261" x2="14" stroke="white"/>
<line x1="43" y1="261" x2="43" stroke="white"/>
<line x1="72" y1="261" x2="72" stroke="white"/>
<line x1="101" y1="261" x2="101" stroke="white"/>
<line x1="130" y1="261" x2="130" stroke="white"/>
<line x1="159" y1="261" x2="159" stroke="white"/>
<line x1="188" y1="261" x2="188" stroke="white"/>
<line x1="217" y1="261" x2="217" stroke="white"/>
<line x1="246" y1="261" x2="246" stroke="white"/>
<line x1="275" y1="261" x2="275" stroke="white"/>
<line x1="304" y1="261" x2="304" stroke="white"/>
<line x1="333" y1="261" x2="333" stroke="white"/>
<line x1="362" y1="261" x2="362" stroke="white"/>
<line x1="391" y1="261" x2="391" stroke="white"/>
<line x1="420" y1="261" x2="420" stroke="white"/>
<line x1="449" y1="261" x2="449" stroke="white"/>
<line x1="478" y1="261" x2="478" stroke="white"/>
<line x1="507" y1="261" x2="507" stroke="white"/>
<line x1="536" y1="261" x2="536" stroke="white"/>
<line x1="565" y1="261" x2="565" stroke="white"/>
<line x1="594" y1="261" x2="594" stroke="white"/>
<line x1="623" y1="261" x2="623" stroke="white"/>
<line x1="652" y1="261" x2="652" stroke="white"/>
<line x1="681" y1="261" x2="681" stroke="white"/>
<line x1="710" y1="261" x2="710" stroke="white"/>
<line x1="739" y1="261" x2="739" stroke="white"/>
<line x1="768" y1="261" x2="768" stroke="white"/>
<line x1="797" y1="261" x2="797" stroke="white"/>
<line x1="826" y1="261" x2="826" stroke="white"/>
<line x1="855" y1="261" x2="855" stroke="white"/>
<line x1="884" y1="261" x2="884" stroke="white"/>
<line x1="913" y1="261" x2="913" stroke="white"/>
<line x1="942" y1="261" x2="942" stroke="white"/>
<line x1="971" y1="261" x2="971" stroke="white"/>
<line x1="1000" y1="261" x2="1000" stroke="white"/>
<line x1="1029" y1="261" x2="1029" stroke="white"/>
<line x1="1058" y1="261" x2="1058" stroke="white"/>
<line x1="1087" y1="261" x2="1087" stroke="white"/>
<line x1="1116" y1="261" x2="1116" stroke="white"/>
<line x1="1145" y1="261" x2="1145" stroke="white"/>
<line x1="1174" y1="261" x2="1174" stroke="white"/>
<line x1="1203" y1="261" x2="1203" stroke="white"/>
<line x1="1232" y1="261" x2="1232" stroke="white"/>
<line x1="1261" y1="261" x2="1261" stroke="white"/>
<line x1="1290" y1="261" x2="1290" stroke="white"/>
<line x1="1319" y1="261" x2="1319" stroke="white"/>
<line x1="1348" y1="261" x2="1348" stroke="white"/>
<line x1="1377" y1="261" x2="1377" stroke="white"/>
<line x1="1406" y1="261" x2="1406" stroke="white"/>
<line x1="1435" y1="261" x2="1435" stroke="white"/>
</g>
</svg>
