<svg width="40" height="44" viewBox="0 0 40 44" fill="none" xmlns="http://www.w3.org/2000/svg">
<path d="M24.3895 31.9009C24.2623 31.933 24.2945 32.0614 24.4217 32.0293C24.2945 32.0614 24.2945 32.2218 24.4217 32.1897H24.454C24.4217 32.2218 24.454 32.2859 24.5184 32.2859C24.5184 32.3502 24.5507 32.4143 24.5507 32.4143C24.6151 32.4143 24.6473 32.3822 24.6473 32.3502C24.6795 32.318 24.744 32.318 24.7745 32.3502C24.839 32.3502 24.9034 32.3502 24.9034 32.4464C25.0001 32.4464 25.0323 32.5106 25.0646 32.5427C25.224 32.6711 25.2562 32.8636 25.3207 33.0563L25.2884 33.0883C25.2884 33.0883 25.3529 33.2167 25.4818 33.3129C25.5785 33.6339 25.7701 33.7944 26.0262 33.9548C26.0907 34.051 26.2518 34.1794 26.3807 34.3078L26.3485 34.2116V34.1153C26.4435 34.1794 26.5401 34.2437 26.6368 34.3399C26.669 34.3399 26.7013 34.3078 26.7013 34.3078C26.7657 34.3721 26.7979 34.4682 26.8607 34.5005C26.8929 34.5005 26.9251 34.5005 26.9574 34.4682C27.1829 34.725 27.2474 35.0782 27.4391 35.3027C27.6002 35.4632 27.9852 35.6879 28.1446 35.9447C28.338 36.2013 28.6908 36.2976 28.8841 36.5544C28.9469 36.4581 28.9791 36.5865 29.0436 36.5544C29.0436 36.5865 29.0435 36.6506 29.0758 36.6506L29.3319 36.7469C29.2691 36.7149 29.2369 36.6506 29.2047 36.6185C29.6864 36.9394 30.1358 37.3246 30.6158 37.6777C31.8675 38.7368 33.087 39.9562 34.3387 41.0475C34.3065 40.9511 34.3064 40.887 34.3709 40.855C34.5642 41.0154 34.8526 41.3684 35.046 41.4004C34.532 40.855 33.9537 40.3414 33.762 39.6996C33.9537 39.7317 34.0504 39.7317 34.2115 39.8601C34.147 39.8921 34.1148 39.9242 34.1148 39.9885C34.2437 39.8921 34.2742 39.9885 34.3065 40.0205C35.1731 40.9832 36.0721 41.8819 37.0032 42.7485C36.4893 41.9461 35.687 41.4647 35.2698 40.6944C36.0398 41.3684 36.8098 42.0424 37.5171 42.8446L38.3516 43.7112C38.3516 43.615 38.3838 43.5507 38.3838 43.4866L37.5171 42.5558C37.2271 42.267 36.8743 41.9461 36.6827 41.6572C36.4249 41.24 36.2976 40.8228 35.8804 40.5661C35.8804 40.6623 36.0076 40.7907 35.9432 40.855C35.3665 40.3093 34.6609 39.6996 34.2742 39.0256C34.3387 38.9613 34.4354 39.186 34.4354 39.0576C34.2437 38.9293 34.0826 38.6725 33.9537 38.3836C33.857 38.3836 33.9537 38.512 33.8265 38.4479C33.472 37.9666 32.8309 37.7098 32.5748 37.1C32.6698 37.1321 32.7664 37.1642 32.8953 37.1642C33.0548 37.1962 31.9642 36.779 32.1253 36.2976C32.2847 35.9125 32.3492 36.5865 32.9275 36.7149C33.1514 36.7469 33.1192 36.5544 33.2159 36.4581C34.1148 37.3246 34.8526 38.0307 35.1732 38.2875V38.1911C35.0782 38.0307 34.9493 37.9986 34.9493 37.8382L34.9815 37.7418C35.5581 38.4159 36.6826 40.0205 37.6121 40.1167C37.5171 40.0205 37.4527 39.9562 37.4527 39.8278C37.4849 39.6674 37.5799 39.6996 37.741 39.6996C37.5799 39.6033 37.4849 39.5712 37.3238 39.5712V39.6996C37.1321 39.6674 36.9065 39.6353 36.8099 39.4108C36.9065 39.4108 37.0677 39.4108 37.0999 39.2824C36.8421 39.2824 36.6827 39.2502 36.5215 38.9935C36.6182 38.9293 36.7149 38.9293 36.7776 38.9293C36.7776 38.8331 36.7776 38.8331 36.7149 38.7368C36.6182 38.6725 36.3926 38.3836 36.3282 38.3836C36.2332 38.2875 36.1043 38.2232 36.1043 38.2232L35.9754 38.2554L35.9126 37.9343C35.7515 37.9986 35.8482 38.1911 35.6871 38.2554L35.1087 37.6134V37.3567C35.1087 37.1962 35.2698 37.2605 35.302 37.2605C35.2698 37.5171 35.0137 37.453 35.4954 37.7418L35.5259 37.5493C35.5259 37.2283 35.1409 37.1962 35.1409 36.9394H35.1087C35.1087 36.9074 35.1409 36.8433 35.1409 36.8112C35.0782 36.8433 35.0459 36.779 34.9815 36.7469C34.9493 36.7469 34.9493 36.7469 34.917 36.7149H34.8848V36.5865C34.5965 36.5865 34.4998 36.2976 34.3709 36.1372C34.0826 35.6879 33.7298 35.2386 33.3126 34.8855C33.2803 34.7571 33.1192 34.5646 32.7986 34.1794C32.6375 34.019 33.9214 34.9818 33.857 34.8534C33.6009 34.4362 35.6548 34.8855 35.6548 34.8855L35.0782 34.4362C35.2054 34.4041 35.046 33.8906 35.046 33.8265V33.7301L34.8848 33.8585V33.7622L34.6609 33.9228H34.6287C34.6287 33.7301 34.6915 33.6017 34.8204 33.5056H34.7881C34.6609 33.5056 34.6287 33.3451 34.7559 33.3451C34.8204 33.3451 34.8526 33.4413 34.8204 33.4733L35.0137 33.3772L35.046 33.5697H35.1732C35.1732 33.6981 35.2376 33.7944 35.3343 33.9869H35.2054L35.302 34.3721C35.4632 34.3721 35.4632 33.9869 35.4309 33.8265C35.4309 33.5697 35.3343 33.4733 35.302 33.2167H35.3987V33.1524H35.2698L34.8848 32.992L34.7559 33.0883C34.7559 32.9279 34.6287 32.9279 34.5965 32.9279C34.3709 32.9279 34.3387 32.9279 34.3387 33.0883L34.3709 33.1845L34.3387 33.2488C34.3387 33.2488 34.1792 33.2167 34.0826 33.1204L33.9859 33.024L34.0826 32.8636C34.0826 32.9599 34.1792 32.9599 34.2437 32.9599L34.2115 32.7674H34.3065C34.3387 32.7352 34.3387 32.5106 34.3387 32.4143C34.3387 32.4143 34.3065 32.2859 34.2115 32.2859H34.147L34.1148 32.0293C34.1148 32.0293 34.2742 32.1897 34.3065 32.1575L34.532 32.0614C34.3064 31.8687 34.1148 31.933 33.857 31.933C33.857 31.7725 33.9214 31.7725 33.8892 31.6441C33.7942 31.4837 33.6976 31.4194 33.5687 31.4194C33.5687 31.4514 33.6331 31.6762 33.762 31.6762C33.6009 31.8046 33.5042 31.933 33.4398 32.0614L33.3448 31.965L33.1837 32.0614L33.087 32.0934H32.992C33.3448 31.933 33.5042 31.8046 33.472 31.4194C33.3126 31.4194 32.9598 31.3232 32.8953 31.291L32.8631 31.0344L32.5103 31.0664V30.8417L32.702 30.8097V30.7776C32.607 30.6813 32.4459 30.6492 32.4459 30.6492L32.0931 30.8097C32.0931 30.8097 32.0609 30.8097 31.9964 30.8417C32.1575 30.7776 32.0609 30.5529 32.2203 30.5529V30.4567C32.2203 30.3604 32.1898 30.264 32.1575 30.1999C32.2203 30.1679 32.1898 30.0395 32.1575 30.0395C32.0931 30.0395 32.0931 30.0715 32.0931 30.1036C31.8675 29.9431 31.5147 30.0395 31.4825 29.6543L31.3231 29.7827C31.0653 29.7827 30.8414 29.4297 30.8092 29.2691L30.6803 29.3013C30.6803 29.1409 30.7769 28.9162 30.5208 28.9482C30.5208 28.8841 30.4886 28.7878 30.648 28.7878C30.648 28.7557 30.5836 28.6273 30.4886 28.6273L30.3275 28.7878C30.3919 28.6273 30.2308 28.6273 30.2308 28.4989H30.3919V28.3705H30.3597C30.3597 28.2421 30.4564 28.178 30.3597 27.9855C30.1358 27.8892 30.0069 27.9855 29.9425 28.1137L29.878 28.146L29.6864 28.0176H29.878V27.8892C29.7813 27.8571 29.5897 27.6324 29.5897 27.6324L29.4285 27.7928L29.2369 27.6324L29.3963 27.5361L29.3319 27.3436C29.4286 27.2794 29.493 27.2152 29.4608 27.119C29.4285 26.9263 28.9791 26.9584 29.0436 27.2794C28.8841 27.2152 28.2735 26.6695 28.2091 26.6054C28.1124 26.5091 27.8885 26.2525 27.9207 26.1561C27.953 26.1561 27.9852 26.1882 28.0174 26.1882H28.0497C28.0497 26.2203 28.1124 26.2525 28.1446 26.3166L28.1769 26.3486L28.3057 26.5091C28.2735 26.5413 28.2735 26.6054 28.3057 26.6695C28.338 26.7018 28.4347 26.7018 28.4974 26.6695C28.5941 26.7659 28.6585 26.7979 28.6585 26.7659C28.6585 26.7338 28.6263 26.7018 28.5618 26.6375C28.5941 26.6375 28.6263 26.6054 28.6585 26.5734C28.6263 26.3807 28.4669 26.3486 28.3702 26.445L28.3057 26.3807C28.4024 26.3486 28.4669 26.1561 28.3702 26.0919C28.2735 26.0598 28.1769 26.1241 28.1446 26.2203C28.1124 26.1882 28.0802 26.1882 28.0802 26.1561C28.2413 26.1241 28.2413 26.0598 28.4346 25.9957C28.4974 25.9314 28.5296 25.8673 28.5618 25.803C28.5618 25.8994 28.6263 25.8994 28.6263 25.803C28.6263 25.771 28.5941 25.7389 28.5941 25.7389V25.6748V25.6105C28.5941 25.2576 28.1769 25.0328 27.7596 25.0649C27.7274 25.1612 27.7596 25.2576 27.7596 25.386H27.7274C27.6952 25.3217 27.6324 25.2896 27.6002 25.2576L27.7596 25.0328C27.8885 25.0328 27.9207 25.0328 28.0174 24.9044H27.8885L27.7918 24.9687C27.8563 24.8403 27.8885 24.7119 27.8563 24.5515C27.5679 24.4872 27.054 24.776 26.9251 25.1292L26.4129 24.6799C26.4757 24.6799 26.5401 24.6477 26.5724 24.5835C26.6368 24.5835 26.6368 24.5515 26.6368 24.5194C26.669 24.4552 26.669 24.391 26.669 24.3268H27.0863C27.054 24.07 26.6368 24.07 26.7335 23.9095L26.2196 23.4923C26.284 23.3961 26.2518 23.2677 26.1229 23.1393C26.0262 23.1393 25.9635 23.1714 25.899 23.2034C25.3529 22.7221 24.7118 22.2087 24.6473 22.2728L23.8451 21.5026L23.684 21.5347C23.4601 21.5347 23.2667 20.6039 22.8495 20.8927L22.6578 20.7002C23.5873 19.4485 24.5184 18.197 25.3851 16.9453C25.4496 16.9453 25.5462 16.9132 25.6412 16.8169C25.609 16.6564 25.6734 16.528 25.6412 16.3676C25.8023 16.143 25.9312 15.9504 25.9635 15.822L25.514 16.3997C25.3851 16.3997 25.2884 16.2714 25.129 16.3997C25.0323 16.496 25.0323 16.7207 25.1612 16.8491C24.6151 17.4589 24.1012 18.0686 23.4923 18.5179C23.5245 18.2932 23.4923 18.197 23.7162 17.9081C23.7484 17.9402 23.8129 17.9402 23.8773 17.9081C23.7484 17.8439 23.8773 17.7477 23.9417 17.6834L25.4818 15.7579C25.609 15.822 25.7379 15.822 25.8023 15.822C25.899 15.6615 25.8668 15.5011 25.8023 15.3406L26.2518 14.795C26.2518 14.9555 26.3807 15.1161 26.5079 15.2122C26.4129 15.3086 26.284 15.4049 26.2518 15.5011C26.3807 15.3727 26.5079 15.2765 26.5724 15.3727C26.6046 15.5011 26.4129 15.6615 26.3485 15.7899C26.5724 15.5974 26.7657 15.3727 26.9251 15.1802C26.9896 15.1161 27.054 15.0518 27.0863 14.9555C27.4068 14.5384 27.6629 14.1532 27.953 13.736C27.4713 14.1212 27.3424 14.4421 27.0863 14.795C27.054 14.6988 26.9896 14.6025 26.8929 14.5704C27.3424 14.1853 27.7596 13.736 27.953 13.3188L27.7596 13.5113C27.7596 13.3508 27.6002 13.1904 27.4391 13.2225L27.8241 12.6769C26.9574 13.5113 26.3807 14.4421 25.6735 15.2443C25.6412 15.2122 25.5785 15.1802 25.5462 15.1802C25.9312 14.6025 26.3807 14.0248 26.7979 13.4471C26.8607 13.4471 26.8929 13.415 26.9251 13.3508V13.3188L27.9852 11.9708L28.7552 10.9759C28.8197 11.1043 29.0113 11.1685 29.0758 10.9439C29.0758 10.9117 28.9791 10.8476 28.9146 10.8155L28.9791 10.7192V10.8476C29.1402 10.655 29.493 10.3983 29.5574 10.1415L29.0113 10.6871C29.2369 10.3983 29.4608 10.1094 29.7186 9.85267C29.7186 9.88476 29.7186 9.94895 29.7491 9.94895C29.8458 9.94895 29.878 9.82058 29.7813 9.78849C29.9102 9.62802 30.0391 9.49965 30.1663 9.40336C30.6802 8.40846 31.6114 7.47776 32.5103 6.41868C33.2803 5.55216 33.9859 4.49308 34.7559 3.53027L36.4893 1.34792C36.6504 1.15536 37.1626 0.545592 36.9388 0.802327C33.7298 4.55726 30.5513 8.44057 27.568 12.1634C27.568 12.1634 27.5357 12.1955 27.5357 12.2276C27.3746 12.1313 27.2779 12.1313 27.183 12.2597C27.183 12.3881 27.2474 12.4522 27.3424 12.4522L27.0541 12.8374C27.0218 12.8053 26.9574 12.8053 26.9251 12.8374C26.9574 12.8695 26.9574 12.9015 26.9574 12.9336L26.8302 13.1262C26.7657 13.0941 26.7013 13.0941 26.6368 13.0941C26.5401 13.1904 26.5724 13.3188 26.6368 13.3829L26.2518 13.8002C25.899 14.1532 25.5462 14.4421 25.2562 14.7309C25.3529 14.5704 25.4173 14.3778 25.4496 14.1532C25.5785 13.2546 26.1874 12.6448 26.8302 12.0671C26.9896 11.9387 27.2152 11.7783 27.2152 11.4894C27.1507 11.4573 27.1507 11.329 27.2474 11.329C27.3102 11.329 27.3424 11.329 27.3424 11.3932C27.3746 11.329 27.4068 11.2969 27.3746 11.2327H27.5035V11.2006H27.4713C27.4713 11.2006 27.5035 11.1685 27.5357 11.1685C27.6324 11.1043 27.6629 10.9759 27.6629 10.8797C27.6952 10.8476 27.6629 10.7834 27.6324 10.7513C27.6952 10.7513 27.8241 10.655 27.953 10.5587C27.9852 10.5266 28.0174 10.5266 28.0174 10.4945C28.1124 10.655 28.3057 10.7192 28.4669 10.5587C28.4669 10.4624 28.4024 10.3662 28.2735 10.2699C28.4669 10.0773 28.6263 9.91686 28.6263 9.82058C28.5941 9.66011 28.7874 9.7564 28.9146 9.49965H28.5941L28.7552 9.33918C29.0113 9.2429 28.9791 9.08243 29.1402 8.95405L29.0436 8.88987V8.79359L29.1402 8.6973C29.3013 8.63312 29.4608 8.28009 29.4608 8.28009L29.6219 8.34428C29.6219 8.248 29.6541 8.21591 29.7813 8.08753C29.6541 7.95916 29.6541 7.99125 29.6219 7.99125C29.5897 7.73451 29.8458 7.70242 30.1036 7.70242L29.8458 7.57405C29.878 7.2852 30.1036 7.09263 30.263 6.90008C30.263 6.99636 30.3597 6.99636 30.3597 6.90008C30.3597 6.86799 30.3275 6.8359 30.2952 6.86799C30.3919 6.70752 30.4886 6.57915 30.4886 6.38659L30.0713 6.7717C30.0713 6.51495 30.1986 6.22611 30.1663 5.96938C29.9102 6.00146 28.7552 7.50985 28.6585 7.79869H28.8197C28.6908 8.02335 28.1124 8.34428 28.1446 8.60103H28.3702C28.2091 8.6973 27.953 8.7615 27.7918 8.79359V8.72939C27.7596 8.47266 27.9207 8.34428 28.1124 8.34428C28.1124 8.31219 28.0174 8.18382 28.0174 8.18382C28.1124 8.18382 28.1768 8.11962 28.2735 7.99125C28.3057 8.02335 28.3058 8.05544 28.338 8.05544C28.4024 8.05544 28.4024 7.92707 28.3702 7.86289C28.5296 7.67031 28.6585 7.44567 28.7874 7.34938L28.3057 7.38147C28.7874 7.31729 29.7813 6.51495 29.7491 6.00146C29.7491 5.841 29.3963 5.87309 29.3963 5.61634L29.3641 5.52007C29.3641 5.45587 29.8458 4.81401 29.8458 4.74981L29.6864 4.81401V4.74981C29.6541 4.3647 30.7447 3.65865 30.7125 3.20934L29.9425 4.10795H29.9102C29.9102 4.14004 29.9102 4.36471 29.8136 4.36471H29.6864L29.6541 4.23633C29.9102 4.10795 29.878 3.8512 29.878 3.59445V3.27352C29.7813 3.43399 29.4285 3.97958 29.3013 3.97958L28.338 4.97448L28.2413 5.00657C28.338 4.87819 28.7874 4.42888 28.7874 4.30051C28.7874 4.20424 28.723 4.17213 28.6263 4.17213C28.7874 4.01167 29.493 3.17725 29.6219 3.01677L29.8458 2.76003C29.3641 2.8563 28.9469 3.46609 28.6908 3.78702H28.5941L28.6585 3.65865L28.9791 3.20934H28.9146C28.9146 3.20934 28.7552 3.49818 28.6908 3.4019L27.8885 4.23633L27.6952 4.26842C27.7919 4.20424 28.1769 3.81911 28.1769 3.69074C28.1769 3.56236 28.0802 3.53027 28.0174 3.53027C28.1768 3.36981 28.3057 3.14514 28.4024 2.98468C28.1446 3.17725 27.8563 3.53027 27.7918 3.94749L27.6952 3.97958C27.6324 3.97958 27.4391 4.10795 27.3746 4.23633V4.10795C27.1185 4.14004 27.0541 4.30051 27.0541 4.52517C27.1507 4.52517 27.1507 4.62144 27.0541 4.65355V4.52517C27.0218 4.52517 27.0218 4.65355 27.0541 4.65355V4.78192C26.7979 4.78192 26.8929 4.81401 26.7657 4.65355L26.8607 4.39679V4.30051H26.7335C26.7657 4.65355 26.284 5.61634 25.7701 5.64843C25.8023 5.71262 25.899 5.71262 25.9635 5.71262C25.9312 5.841 25.8346 5.87309 25.7701 5.90518C25.8023 5.93727 25.8023 6.06564 25.7379 6.06564C25.6734 6.06564 25.6412 6.00146 25.6735 5.96938C25.5785 6.00146 25.514 6.06564 25.5785 6.3224L25.4818 6.22611L25.3529 6.35449L25.4173 6.45077V6.51495C25.2562 6.67543 25.0645 6.80379 24.9356 6.93217L25.0323 7.02845C24.9357 7.2852 24.7745 7.15683 24.6151 7.15683V6.96427C24.454 6.96427 24.454 7.15683 24.2623 7.18892H24.1012L24.454 6.96427L24.2301 6.8359L24.6795 6.70752L24.744 6.80379H24.839L24.9034 6.61124V6.51495L24.3268 6.54706C24.3268 6.54706 24.1656 6.8359 24.069 6.73961L23.684 7.22101L23.6517 6.86799L23.1378 7.38147C23.17 7.2852 23.3312 7.12474 23.3312 7.02845V6.96427H23.2989C23.2989 6.70752 24.0367 6.41868 23.7806 6.16193L24.744 4.87819C24.6151 4.94239 24.4862 5.00657 24.4217 5.10285C24.2945 5.19912 24.1979 5.3275 24.1012 5.45587V5.48796L23.9723 5.61634C23.8773 5.7768 23.7484 5.90518 23.6195 6.03355V6.09775L23.5245 6.19402L23.555 6.09775C23.4923 6.19402 23.4279 6.22611 23.3634 6.29031C23.4923 6.29031 23.5245 6.45077 23.3956 6.45077C23.3312 6.45077 23.2989 6.38659 23.2989 6.35449L22.8817 6.64333C22.8173 6.73961 22.7206 6.8359 22.6256 6.90008C22.6256 6.99636 22.4645 7.09263 22.4645 7.2852V7.34938L22.6256 7.15683H22.6578C22.6256 7.25311 22.5612 7.41358 22.4645 7.44567H22.3678L22.2728 7.34938C22.2728 7.2852 22.3033 7.22101 22.3033 7.15683C22.2728 7.2852 22.2084 7.41358 22.1439 7.50985C22.1761 7.57405 22.2406 7.60614 22.3033 7.60614L22.1439 7.86289C21.9828 7.99125 21.4061 8.6973 21.2772 8.82568L21.245 8.72939C21.5333 8.31219 21.8556 8.02335 22.1439 7.70242C20.9567 7.92707 21.0839 9.53174 20.2494 10.0773L20.4105 10.0452L19.9933 10.4945C19.8644 10.3983 19.0944 11.2648 18.9027 11.5215V11.4894C18.9672 11.2327 18.8705 11.329 19.0622 11.2648C19.1266 11.1043 19.2233 11.1043 19.2233 10.9439L19.1266 10.9759C18.0683 11.3611 18.5177 12.4201 17.7155 13.2546C17.3305 13.6076 16.2382 15.6295 15.9176 15.6295C14.537 14.8913 13.0292 13.6076 12.3559 13.062C12.0659 12.8374 10.4936 11.6178 9.59469 11.7141V11.4894L9.43525 11.5536L9.49971 11.329L9.30635 11.2327V11.4573L9.20967 11.4894C9.14522 11.4894 8.76021 11.2648 8.66523 11.2648C8.76021 11.1043 8.69576 11.008 8.60078 10.9439C8.66523 10.6871 8.72799 10.4945 8.5041 10.3662C8.1191 10.302 8.08688 10.5587 7.76632 10.5587C7.73409 10.6229 7.73409 10.655 7.70186 10.655L7.05906 10.8476C7.12351 10.7834 7.15573 10.7192 7.15573 10.5908C6.96407 10.3983 6.70627 10.7513 6.89962 10.9117C6.77072 10.9439 6.6113 10.9759 6.41794 10.9759C6.03294 11.008 5.7446 11.2327 5.55125 11.4894C5.45457 11.5215 5.42235 11.5857 5.35959 11.6178C5.32737 11.5215 5.32736 11.4573 5.23069 11.4252C5.26291 11.2006 5.42235 11.1043 5.45457 10.8797C5.19847 10.9117 5.10179 10.9118 4.81346 10.8476C4.84569 10.7513 4.78124 10.6871 4.71679 10.655C4.68456 10.9759 4.26732 11.2006 3.97899 10.9439C3.72288 11.008 3.49731 11.1043 3.49731 11.329C3.49731 11.7783 4.20287 11.6499 4.33177 11.329C4.4929 11.6178 4.91013 11.9066 5.29514 11.7141C5.32736 11.7141 5.32737 11.7462 5.35959 11.7783L5.10179 12.2918V12.1955C4.87791 12.0029 4.58788 12.1955 4.4929 12.3881C4.58788 12.5806 4.81346 12.6127 5.00512 12.5485C4.87791 12.8053 4.78123 12.9657 4.6201 12.9978C4.36399 12.9978 6.25681 13.8644 6.00071 13.8644C6.00071 14.0569 4.52512 12.9978 4.52512 13.2546C4.58787 14.0248 2.59839 14.2173 3.33618 16.7207L3.52953 17.2341C3.78563 17.3625 4.81346 18.0686 4.81346 18.3254C4.84569 18.8388 3.01562 17.4268 3.01562 17.7798L4.78123 18.9672L4.68455 18.9992C4.84568 18.9672 5.26291 18.9672 5.39012 19.1919C5.35959 18.9672 5.45458 18.9031 5.6157 18.9031C5.51903 19.0635 5.68015 19.0635 5.71238 19.1919C5.80736 19.1919 5.96849 19.1919 5.96849 19.1597C7.83077 20.0905 9.65913 21.2458 11.3925 22.3692C10.1408 25.418 2.56616 32.3823 3.43285 33.8265C3.33618 33.8585 3.27343 33.9548 3.14452 33.9228C3.1123 34.051 3.04785 34.1473 2.95117 34.2116C2.85619 34.5005 3.04785 34.725 3.30565 34.693C3.30565 34.7893 3.3684 34.8855 3.3684 35.0139C3.14452 35.0139 3.14453 35.4311 3.40063 35.3027C3.43286 34.9498 3.97898 35.0139 4.17064 34.725C4.20287 34.6609 4.20287 34.5646 4.14011 34.5325C4.20287 34.5325 4.2351 34.5005 4.29955 34.5005C4.26732 34.6287 4.364 34.725 4.364 34.8855C4.39623 34.9175 4.42845 34.9498 4.46068 34.9498C4.42845 34.9498 4.39622 34.9498 4.33177 34.9818C4.20287 35.2386 4.46067 35.4311 4.58788 35.2064C4.58788 35.1102 4.58787 35.0459 4.52512 34.9818C4.65232 35.0459 4.74901 34.9818 4.91014 34.9818V35.0139C4.94236 35.0139 4.97459 34.9818 5.00512 34.9818H5.06957C5.13402 34.9818 5.16623 35.0459 5.23069 35.0459C5.29514 35.0459 5.3596 35.0139 5.42235 35.0139C5.42235 35.2386 5.45457 35.5916 5.68014 35.5274C5.74459 35.4632 5.77683 35.3991 5.80736 35.3027C5.80736 35.4311 5.90403 35.3991 6.00071 35.367C6.03293 35.3027 6.03293 35.2064 6.00071 35.1102C5.90403 35.1743 5.87181 35.2064 5.80736 35.1743V35.0139C5.71238 35.0139 5.68015 34.9818 5.6157 34.9498C5.68015 34.9175 5.7446 34.8534 5.80736 34.7893L5.83958 35.0139C5.90403 34.9818 6.09738 34.9818 6.09738 34.8214H6.00071L5.96849 34.7571L6.06516 34.6609V34.5646L6.00071 34.5005C6.03293 34.4682 6.03293 34.4682 6.03293 34.4362H6.06516C6.09739 34.3721 6.09739 34.3399 6.06516 34.3078C6.19406 34.3078 6.22459 34.4041 6.22459 34.5005C6.22459 34.7571 6.16183 34.9818 6.16183 35.1743C6.25682 35.1743 6.35349 35.0782 6.41794 34.9818C6.51462 35.0459 6.67405 35.0459 6.67405 35.1423L6.57907 35.3027H6.67405L6.77073 35.2064C6.77073 35.2064 6.89963 35.0459 7.05906 34.7893C7.09128 34.8855 7.1235 34.9498 7.18795 34.9498L7.09128 35.1102H7.05906C7.02853 35.1102 7.02853 35.1423 7.02853 35.1743C6.89963 35.3991 6.80295 35.5595 6.80295 35.5916L6.8674 35.8163C6.8674 35.9125 6.83517 35.9767 6.83517 36.0729C6.83517 36.1051 6.9963 36.2656 7.09128 36.2335L7.25241 36.2013V36.4581L7.22018 36.426C7.18796 36.4901 7.22018 36.5544 7.25241 36.5544C7.28463 36.5224 7.28464 36.4901 7.28464 36.4901C7.28464 36.426 7.31686 36.2335 7.50851 36.2335C7.54074 36.2335 7.66964 36.2013 7.66964 36.2976L7.54073 36.4901L7.66964 36.4581C7.79854 36.4581 7.86299 36.426 7.95797 36.426L7.92575 36.2976V36.2013C8.08688 36.2335 8.21578 36.2976 8.31076 36.394L8.53634 36.2656C8.66524 36.1372 8.66524 36.0408 8.79245 35.9447C8.95357 35.8163 9.113 35.6236 9.2419 35.4311H9.3708V35.3027C9.43525 35.3027 9.4997 35.2707 9.56245 35.2386C9.88471 34.8214 10.2053 34.5005 10.6547 34.2757C10.687 34.2437 10.6869 34.1474 10.7192 34.0832C11.1992 33.634 11.5214 33.1204 11.9387 32.6068C12.0336 32.4786 12.1303 32.3822 12.2914 32.318C12.3237 32.2859 12.3237 32.1575 12.3559 32.1255L12.7731 31.7725C12.4831 32.6068 10.9431 34.2116 10.6225 34.8855C10.2375 34.9498 9.46748 36.2013 9.53023 36.2335C10.1086 36.5544 10.687 35.2064 10.8786 35.1743C11.0075 35.0139 11.842 33.8265 12.0981 33.634C12.0981 33.8585 11.8097 34.1153 11.7775 34.3399C11.5214 34.4682 11.0397 35.3991 11.2314 35.3991C11.2636 35.5274 12.0659 34.2437 12.0659 34.3721C12.3559 34.1474 12.0014 35.1743 12.6764 34.5325C12.7409 34.4682 12.8053 34.3721 12.9003 34.3078C12.8681 34.2757 12.8359 34.2116 12.8681 34.1794C12.8681 34.0832 12.8681 33.9869 13.0292 33.9228C12.997 33.8265 13.1259 33.7301 13.1581 33.666C13.382 33.3451 13.767 33.1524 14.0876 32.8636C14.152 32.7995 14.152 32.7031 14.2487 32.6711C15.1154 32.0614 15.2443 31.291 15.7565 30.5529L15.7243 30.5208L16.0143 30.1679C16.0143 30.1679 15.9821 30.1356 15.9821 30.1036C16.3027 29.6543 16.881 29.3334 17.2016 28.9162C17.4255 28.6273 17.7477 28.0496 18.1327 27.6645L18.2921 27.472L18.4533 27.6003C18.4533 27.5361 18.4533 27.4399 18.5499 27.4399C18.6127 27.4399 18.6449 27.6003 18.5499 27.6003H18.5177C19.0944 28.0176 19.7694 28.6594 19.9611 28.852H19.8644L19.705 28.8198C19.7372 29.1087 20.0578 29.3654 20.3461 29.3334L20.5072 29.3013L20.6666 29.4297L20.5394 29.5902L20.7633 29.4938H20.7955C21.0533 29.4618 21.3417 30.0715 21.7267 30.1036V30.0395C21.7267 30.0074 21.63 29.9111 21.5978 29.879H21.7267C22.1117 29.8468 22.4645 30.264 22.9462 30.232C22.9784 30.6492 23.0751 30.6492 23.555 30.6813L23.3956 30.7776C23.4923 30.7776 23.5245 30.8739 23.5245 30.938C23.7806 30.9701 23.8129 31.0664 23.8773 31.1626C23.8773 31.1305 23.9095 31.0985 23.9417 31.0985C23.9723 31.0985 23.9723 31.2589 23.9417 31.2589C24.0367 31.3232 24.1656 31.3232 24.454 31.2589L24.3895 31.4194L24.2623 31.5478C24.2623 31.6762 24.4862 31.7725 24.4862 31.7725C24.5184 31.7725 24.6473 31.7725 24.6473 31.7405V31.933C24.6795 31.933 24.9034 31.7405 24.9034 31.7405L24.9356 31.7725V31.9009L24.9034 31.933L24.839 32.0614C24.7762 32.1255 24.6795 32.1897 24.5829 32.1897H24.5507L24.5184 32.1575H24.4862C24.4862 32.0934 24.4862 32.0293 24.454 32.0293C24.5184 31.9971 24.454 31.9009 24.3895 31.9009ZM24.2945 6.12984V6.22611C24.3895 6.12984 24.5506 5.96938 24.6473 5.96938C24.7118 5.96938 24.8712 6.00146 24.9679 6.00146C24.8712 6.09775 24.7118 6.12984 24.7118 6.29031L24.744 6.38659C24.8068 6.29031 25.129 6.00146 25.224 5.74471V5.93727C25.224 6.19402 25.129 6.19402 25.0968 6.35449L25.5462 5.80891V5.71262L25.4496 5.64843L25.7701 5.13494C25.8023 5.16703 25.9312 5.10285 26.0584 4.97448C26.0262 5.00657 26.0262 5.00657 26.0907 5.00657C26.1229 5.00657 26.1229 5.00657 26.1229 4.94239L26.0907 4.91028C26.5401 4.42888 27.2152 3.36981 27.2152 3.20934C26.9896 3.43399 26.7657 4.10795 26.3485 4.14004H26.3163C26.3485 4.04376 26.5401 3.8512 26.5724 3.62656C26.1874 3.88329 25.3207 4.65355 25.3207 5.07076L25.3529 5.16703L25.4818 5.03866C25.4496 5.48796 25.1918 5.16703 25.0968 5.52007C25.0968 5.58425 25.0646 5.841 25.0646 5.841H24.9679L24.9356 5.68053C24.6795 5.71262 24.2945 5.87309 24.2945 6.12984ZM27.5035 31.8366C27.4068 31.9009 27.4068 32.0293 27.568 32.0934L27.6952 31.9971L27.9852 32.2539L28.9791 33.1845C29.4285 33.5376 29.9747 33.9869 29.9102 33.9869C29.8458 33.9869 29.7491 33.9548 29.6541 33.8906L29.878 34.2116C29.9102 34.2116 29.9102 34.1794 29.9747 34.1794C30.0391 34.1794 30.0391 34.2757 29.9747 34.2757H29.9425V34.3078C29.7813 34.1474 29.6219 33.9548 29.4285 33.7944C28.9146 33.4733 28.4974 32.9279 28.4669 32.8315C28.1446 32.5427 27.8241 32.2859 27.4713 32.0614C27.4391 32.1575 27.6002 32.1897 27.568 32.2539C27.2779 32.0934 26.9574 31.7405 26.7335 31.6762C26.8302 31.7725 27.0218 31.8687 27.0218 32.0293C26.7979 31.8366 26.6046 31.6121 26.4435 31.291C26.6046 31.3232 26.7013 31.4516 26.8607 31.5157C26.7013 31.291 26.4757 31.1305 26.284 31.0022C26.284 31.0985 26.3807 31.2269 26.284 31.291C26.2518 31.2269 26.0262 31.1305 26.0262 30.906C26.0907 31.0022 26.1551 31.0985 26.2518 31.0344C26.0907 30.8739 25.9312 30.6813 25.7379 30.5208C25.7379 30.4567 25.7379 30.3924 25.6735 30.3283C26.3485 30.8417 26.9574 31.3873 27.5035 31.8366ZM23.4278 17.3946C23.2023 17.3625 22.9139 17.555 23.0751 17.8118L22.5934 18.3254C22.6256 18.197 22.6578 18.0686 22.7206 18.0045L22.8173 17.8439H22.8817C22.9139 17.8118 22.8817 17.7477 22.8817 17.7156C23.0106 17.4268 23.0751 17.1057 23.2345 16.7848C23.4279 17.1057 23.8773 16.6244 23.4923 16.3997L23.2989 16.4639C23.2989 16.4319 23.2989 16.3997 23.3312 16.3676C23.7806 15.9826 24.2945 15.7899 24.744 15.3727C24.7118 15.437 24.6795 15.469 24.6795 15.5011C24.8067 15.437 25.0001 15.1802 25.0646 15.2122C24.8712 15.5331 24.6473 15.822 24.4217 16.143C24.4217 15.9504 24.1979 15.822 24.0367 16.0467C24.0045 16.1751 24.1334 16.3355 24.2945 16.3035L24.1334 16.496C24.069 16.4639 23.9723 16.496 23.8451 16.5603C23.8129 16.6564 23.8451 16.7528 23.8773 16.8491C23.7162 17.0096 23.5873 17.2021 23.4278 17.3946ZM19.705 26.4129C19.6727 26.3486 19.6083 26.2525 19.6083 26.1882L19.8644 26.0598C19.9611 26.0598 20.09 26.0919 20.1866 26.1561C19.9933 26.1882 19.8322 26.2203 19.8322 26.3807C19.8966 26.6375 20.4428 26.477 20.2189 26.1882C20.4105 26.2845 20.5717 26.445 20.7311 26.5734C20.86 26.6695 20.9889 26.7659 21.1161 26.8302C20.8922 27.1511 21.3095 27.7287 21.5656 27.2794C21.5978 27.2794 21.5978 27.2152 21.5978 27.1831L22.0795 27.5361C21.9828 27.6645 21.9183 27.8249 21.9183 27.9855L19.705 26.4129ZM2.31005 35.4632H2.27783C2.3745 35.3027 2.21338 35.0139 2.02172 35.2707C2.02172 35.4311 2.05395 35.5274 2.14893 35.5274L1.92505 35.6236C1.60449 35.9767 1.76392 36.5865 2.14893 36.5544C2.21338 36.5544 2.31005 36.4581 2.40672 36.4901C2.43895 36.2976 2.59839 36.1051 2.59839 35.8804C2.59839 35.5595 2.3745 35.6558 2.31005 35.4632ZM28.1446 23.5245C28.0174 22.6258 26.8302 23.2357 27.2152 23.8454C27.4391 24.1663 28.0497 23.9738 28.1446 23.5245ZM1.50781 36.5224C1.47558 36.394 1.3789 36.3617 1.34668 36.2976C1.47558 36.1051 1.34669 35.7841 1.09058 36.0088C1.09058 36.1051 1.05836 36.1692 1.09058 36.2656C0.993907 36.3297 0.96168 36.4581 0.929454 36.5865C0.802249 36.6506 0.770017 36.7469 0.705567 36.8753C0.705567 37.2605 0.865004 37.453 1.18726 37.3889C1.34669 37.2925 1.28223 37.0037 1.34668 36.8112C1.41113 36.6828 1.50781 36.6506 1.50781 36.5224ZM25.3529 21.0533C25.5785 20.5718 25.2884 19.93 24.6473 20.0262C24.454 20.4434 24.6795 21.1816 25.3529 21.0533ZM32.9598 38.8651C32.8631 38.8972 32.7987 38.9293 32.8631 39.0256C32.7342 38.9935 32.6698 38.8651 32.5748 38.8331C32.5748 38.7688 32.6698 38.8009 32.6698 38.7047C32.2525 38.2232 31.7403 37.9986 31.2908 37.5493C31.2264 37.4851 31.2586 37.6777 31.1297 37.6134C30.8736 37.4851 30.7447 37.0358 30.5208 36.8112C30.3919 36.8433 30.6158 37.0358 30.4564 37.0678C30.3275 36.9716 30.3919 36.779 30.3919 36.6828V36.6506H30.5513C30.8414 36.8753 31.0975 37.1321 31.3553 37.3567C31.9642 37.8702 32.5748 38.4479 33.1192 39.0256C33.0242 39.0576 32.992 38.9613 32.9598 38.8651ZM3.3684 35.3991C3.27342 35.367 3.27342 35.4952 3.17674 35.4952C3.08007 35.5274 3.08007 35.4632 3.01562 35.4952C2.95117 35.5274 2.88841 35.6236 2.82396 35.6236C2.75951 35.7841 2.79174 35.9447 2.85619 36.0408C2.91895 36.0729 2.98339 36.0729 3.08007 36.0408C3.04784 36.1372 3.04784 36.2335 3.08007 36.3617H3.33618C3.49731 36.2335 3.40063 35.9125 3.30565 35.8804H3.27342C3.27342 35.8483 3.30565 35.8163 3.30565 35.7841C3.40063 35.752 3.43285 35.6879 3.46507 35.6236C3.46507 35.4952 3.46508 35.3991 3.3684 35.3991ZM6.28904 10.3662C6.22458 10.2378 6.16183 10.0773 6.03293 10.0131C5.8718 10.2057 5.45457 10.2057 5.48679 10.5266C5.55124 10.8797 6.25681 10.8155 6.28904 10.3662ZM20.3783 9.59592C20.475 9.59592 20.475 9.43545 20.3783 9.43545C20.6039 9.11452 20.8278 8.72941 20.9244 8.47266C20.5072 9.11452 19.6405 9.78849 19.6083 10.3341V10.4303C19.6727 10.3662 20.0255 9.94895 20.3461 9.46756C20.3461 9.49965 20.3461 9.59592 20.3783 9.59592ZM27.5035 13.7681C27.2152 14.0248 26.9574 14.2816 26.8302 14.5384C26.7013 14.4741 26.5724 14.4421 26.4435 14.5062L27.2152 13.4792C27.2779 13.6076 27.3746 13.736 27.5035 13.7681ZM7.34908 34.725C7.28463 34.6609 7.22018 34.6287 7.15573 34.6609C7.76632 33.8265 8.88912 32.2539 8.92134 32.2539C8.92134 32.3502 7.95797 33.7622 7.34908 34.725ZM24.744 19.6091C24.9034 19.5128 25.0001 19.3844 24.9679 19.1276C24.8712 19.0315 24.744 18.9351 24.4862 18.9672C24.2623 19.1597 24.3895 19.7053 24.744 19.6091ZM31.033 5.19912L30.8414 5.10285C30.8414 5.03866 30.8736 4.94239 30.8736 4.87819C30.7447 5.00657 30.5836 4.91028 30.4241 5.13494H30.5208C30.5513 5.13494 30.6158 5.07076 30.648 5.03866C30.6158 5.26332 30.4241 5.3596 30.4241 5.55216H30.5208L30.7125 5.68053H30.8092C30.9686 5.58425 31.033 5.42378 31.033 5.26332V5.19912ZM23.4601 31.5478H23.4278V31.4837C23.4278 31.5157 23.4601 31.5157 23.4601 31.5478C23.4278 31.4194 23.3634 31.3553 23.2989 31.291H23.3312C23.3634 31.291 23.3956 31.2589 23.3956 31.2269C23.4279 31.291 23.4923 31.3553 23.555 31.4194C23.555 31.4837 23.5873 31.5478 23.6195 31.5478C23.6517 31.5478 23.6517 31.5157 23.684 31.4837C23.684 31.5157 23.7162 31.5157 23.7484 31.5478L23.684 31.4516C23.684 31.3873 23.6517 31.3232 23.5873 31.3232C23.4923 31.1305 23.3634 30.9701 23.2023 30.906L23.2989 31.0985C23.2667 31.1305 23.2667 31.2269 23.2989 31.291C23.1378 31.1305 22.9462 31.0664 22.8495 30.8097C22.8495 30.7776 22.8817 30.7776 22.9462 30.7776C22.8817 30.7455 22.8495 30.7133 22.8495 30.6813C22.8495 30.7133 22.8495 30.7776 22.785 30.7776C22.6901 30.8096 22.6578 30.6813 22.5612 30.6492C22.6256 30.7776 22.6901 30.8739 22.7528 30.938C22.6578 30.938 22.6578 31.1305 22.7528 31.1305C22.785 31.1305 22.8173 31.0022 22.785 30.9701L22.8817 31.0664C22.8495 31.0985 22.8495 31.2269 22.9139 31.2269C22.9784 31.2269 23.0106 31.1628 22.9784 31.1305C23.0106 31.1305 23.0106 31.1626 23.0428 31.1626C22.9784 31.2269 23.0106 31.3232 23.0751 31.3232C23.1073 31.3232 23.1378 31.291 23.1378 31.2589L23.2023 31.3232H23.17C23.1073 31.3232 23.1378 31.4837 23.2023 31.4837C23.2667 31.4516 23.2667 31.3873 23.2345 31.3553L23.3634 31.4516C23.299 31.4516 23.299 31.5798 23.3634 31.5798C23.3956 31.5798 23.3956 31.5798 23.4278 31.5478C23.3634 31.5798 23.3634 31.7082 23.4601 31.7082C23.555 31.7082 23.555 31.5478 23.4601 31.5478ZM23.4601 28.6273C23.4278 28.6273 23.3956 28.6273 23.3634 28.6594L23.4601 28.5953C23.8451 28.852 24.1979 29.1409 24.5829 29.4297C24.454 29.3975 24.2623 29.4618 24.2623 29.6543L24.1979 29.5902C24.1334 29.4938 24.1656 29.4297 24.1656 29.3654C24.0367 29.3013 23.9095 29.205 23.7806 29.1087C23.8128 29.1087 23.8129 29.0766 23.8129 29.0766C23.7484 28.8841 23.6195 28.8841 23.5245 28.9803C23.4601 28.9803 23.4279 28.9482 23.3956 28.9482C23.4923 28.9482 23.5873 28.7237 23.4601 28.6273ZM28.7874 13.0941C28.6585 12.9978 28.7552 12.8374 28.723 12.709C28.4974 12.6448 28.3058 12.6127 28.1446 12.8695C28.2091 13.1904 28.5941 13.1583 28.7874 13.0941ZM32.3492 28.6914C32.2203 28.5953 32.0286 28.4989 31.8031 28.6594C31.8031 28.7557 31.7403 28.852 31.8031 29.0125C31.9964 29.1409 32.4136 28.9482 32.3492 28.6914ZM31.418 35.2707C31.3231 35.367 30.1663 34.4682 30.2308 34.4041C30.3597 34.3721 31.5469 35.2386 31.418 35.2707ZM24.9679 17.2984C24.5829 17.9081 24.1656 18.5179 23.5873 19.1276C23.9723 18.5179 24.4218 17.9081 24.9679 17.2984ZM27.0218 4.01167V4.14004C27.2474 4.07586 27.6002 3.59445 27.6002 3.4019C27.3424 3.53027 26.9896 3.72283 27.0218 4.01167ZM31.0975 3.36981L30.1036 4.46097C30.3597 4.3647 31.0975 3.78702 31.0975 3.4019V3.36981ZM26.4435 23.2998C26.4757 23.3961 26.5401 23.4923 26.6046 23.5566C26.5079 23.5566 26.5401 23.7491 26.6368 23.7491C26.7013 23.7491 26.7013 23.5886 26.6368 23.5566C27.2474 23.4282 26.6046 22.8184 26.4435 23.2998ZM3.94677 35.6236C3.97899 35.5274 3.94677 35.3027 3.85009 35.2707C3.75341 35.2386 3.65844 35.3348 3.56176 35.3991C3.52954 35.5274 3.59398 35.6879 3.6262 35.8163C3.75341 35.8163 3.91454 35.7199 3.94677 35.6236ZM9.08247 8.88987L9.33858 9.01823C9.40303 8.95405 9.53023 8.92196 9.53023 8.7615C9.46748 8.66521 9.33858 8.63312 9.27413 8.60103C9.27413 8.40846 9.113 8.44057 9.01802 8.53684C8.98579 8.72939 9.17745 8.6973 9.08247 8.88987ZM8.69576 9.82058C8.56855 9.72429 8.31075 9.7564 8.248 9.88476C8.05464 10.2699 8.85689 10.302 8.69576 9.82058ZM5.45457 36.3617C5.45457 36.2335 5.3596 36.3297 5.16624 36.2335C5.06957 36.1692 5.10179 35.9447 4.91014 36.1051C4.84568 36.2335 4.94236 36.394 5.00512 36.4581C5.10179 36.426 5.16624 36.3617 5.19846 36.4581C5.19846 36.5544 5.16623 36.5865 5.23069 36.6506C5.35959 36.5865 5.4868 36.4901 5.45457 36.3617ZM6.96408 35.5595C6.93185 35.5595 6.9963 35.4311 7.09128 35.2707C7.1235 35.2386 7.12351 35.2386 7.12351 35.2064C7.38131 34.8534 7.79854 34.3078 7.86299 34.3078C7.95797 34.3078 7.05906 35.5274 6.96408 35.5595ZM29.8136 25.6748C29.7491 25.6748 29.7186 25.6748 29.6864 25.6105C29.4608 25.6748 29.3319 25.771 29.4285 25.9957C29.5574 26.1882 29.9747 25.9636 29.8136 25.6748ZM29.7491 5.48796C29.7186 5.48796 29.6219 5.45587 29.6219 5.3596C29.5897 5.45587 29.493 5.61634 29.5252 5.68053V5.74471H29.6541L29.7813 5.841H29.9102C30.0069 5.841 30.0391 5.68053 30.0069 5.58425L29.9102 5.68053L29.9747 5.39169C29.9425 5.45587 29.8458 5.48796 29.7491 5.48796ZM24.6473 29.7186C24.6795 29.6543 24.7118 29.5902 24.6795 29.558V29.5259L25.6412 30.2963H25.4496C25.1918 30.0715 24.9034 29.879 24.6473 29.7186ZM29.5897 33.3451C29.5252 33.3451 28.2413 32.1575 28.3057 32.1575C28.4024 32.1575 29.6863 33.3129 29.5897 33.3451ZM4.10789 35.6558C4.07567 35.8483 4.20286 36.0408 4.26732 36.1692C4.36399 36.1692 4.39623 36.1051 4.46068 36.0408C4.42845 35.8163 4.364 35.4632 4.10789 35.6558ZM28.5618 2.82421C28.8841 2.53537 29.108 2.11816 29.3013 1.76514H29.2691L28.4974 2.72793L28.5618 2.82421ZM28.4669 4.30051H28.5618L28.6263 4.42888L27.9852 5.00657C27.9852 4.8461 28.3702 4.30051 28.4669 4.30051ZM23.0751 31.7405C22.9462 31.6121 22.7528 31.4837 22.5934 31.3232C22.4967 31.2589 22.1439 30.8739 22.2728 31.0344C22.785 31.6762 23.4601 32.0614 24.1334 32.7674C23.8451 32.2859 23.4278 32.0614 23.0751 31.7405ZM3.94677 34.5325C3.78564 34.4682 3.65843 34.4362 3.43285 34.5325L3.69066 34.3078C3.65843 34.0832 3.52953 34.0832 3.49731 33.9228C3.56176 33.9869 3.65844 34.019 3.75342 34.051C3.85009 34.051 3.78564 34.4041 3.78564 34.4041L3.91453 34.5005V34.1474C3.94676 34.1474 3.94676 34.1153 3.97899 34.1153C3.97899 34.051 3.97899 34.019 3.94677 33.9869C3.94677 33.9548 3.97899 33.9228 4.01122 33.9228C4.01122 33.9228 4.04344 34.019 4.10789 34.1153C4.07567 34.1153 4.04344 34.1153 4.01122 34.1474C3.91454 34.2757 3.94676 34.4041 4.04344 34.4682C4.01121 34.4682 3.97899 34.5005 3.94677 34.5325ZM22.4645 30.6813L21.8556 30.1999H21.7589L21.8878 30.3604V30.4567L21.7589 30.3604C21.8234 30.6171 22.2728 30.6492 22.4645 30.7455V30.6813ZM27.6002 22.5296C27.7918 22.7221 28.0802 22.4975 27.9852 22.2408C27.7918 22.1765 27.5035 22.3049 27.6002 22.5296ZM3.33618 36.779C2.95117 36.779 3.04784 37.2925 3.27342 37.1962C3.46508 37.1321 3.49731 36.8753 3.33618 36.779ZM2.21337 38.9293C2.31005 38.8331 2.27783 38.6725 2.24561 38.5442C1.8606 38.4159 1.86059 39.2181 2.21337 38.9293ZM6.54684 36.0729C6.41794 36.394 6.67404 36.5544 6.89962 36.394C6.8674 36.1372 6.7385 36.0408 6.54684 36.0729ZM3.85009 36.1051C3.75341 36.2335 3.81786 36.4581 3.91453 36.4901C4.17064 36.4581 4.17064 36.1692 4.07566 36.0408C3.97898 36.1051 3.97899 36.0729 3.85009 36.1051ZM7.09128 10.0452C6.96407 10.0452 6.83517 10.0131 6.73849 9.94895C6.70627 10.0773 6.67405 10.2378 6.77073 10.3341C6.9963 10.3662 7.1235 10.2699 7.09128 10.0452ZM28.5941 23.8454C28.4024 23.9095 28.338 24.0059 28.3702 24.1663C28.5941 24.391 28.9147 23.9417 28.5941 23.8454ZM23.4278 7.41358L22.9784 8.11962C22.9784 8.21591 22.9784 8.34428 22.9462 8.34428L22.8495 8.11962C22.9139 7.92707 23.2023 7.54194 23.4278 7.41358ZM7.31686 10.1094C7.47629 10.0773 7.60519 9.98104 7.57297 9.78849C7.41354 9.59592 7.1235 9.85267 7.25241 10.0773C7.28463 10.0773 7.31686 10.0773 7.31686 10.1094ZM34.1793 40.7266C33.8265 40.4377 33.472 40.1489 33.1837 39.7637C33.5364 40.0205 33.8892 40.3414 34.1793 40.7266ZM30.1663 5.90518C30.2952 5.96938 30.2308 6.3224 30.4564 6.3224L30.4241 5.80891C30.2952 5.80891 30.1663 5.80891 30.1663 5.90518ZM27.1185 6.41868C27.1185 6.57915 26.9896 6.7717 26.8607 6.7717H26.7335L26.8929 6.57915H26.7013C26.7335 6.41868 26.9896 6.41868 27.1185 6.41868ZM24.2301 21.631V21.5026C24.1979 21.5026 23.5245 20.9249 23.4923 20.9249C23.4923 20.957 24.1012 21.5988 24.1012 21.5988L24.2301 21.631ZM30.5513 26.0277C30.4564 25.9957 30.2952 26.0598 30.2308 26.1241C30.263 26.5091 30.8091 26.2525 30.5513 26.0277ZM21.7911 9.37127C21.7911 9.46756 21.8234 9.62802 21.8234 9.62802L21.7267 9.72429C21.6622 9.72429 21.1805 10.302 21.0839 10.4303L21.7911 9.37127ZM4.52512 36.2335C4.49289 36.426 4.23509 36.779 4.58788 36.6828C4.6201 36.5224 4.749 36.3297 4.6201 36.2013C4.58787 36.2013 4.55734 36.2335 4.52512 36.2335ZM32.0608 30.9701H32.0931C32.2525 30.9701 32.4781 31.2269 32.5425 31.3232C32.3169 31.3232 32.1253 31.1305 31.9319 31.0985L32.0608 30.9701ZM29.9747 2.407C30.1036 2.37491 30.263 2.37491 30.3597 2.11816H30.263L30.1036 2.21444V2.11816C30.0714 2.05398 30.0713 1.98978 30.1663 1.95769C29.9424 2.02189 29.9747 2.34282 29.8136 2.407H29.9747ZM30.6158 37.6134C30.9686 37.4209 31.2908 37.9986 31.6114 38.2875C31.1942 38.2554 31.033 37.4851 30.6158 37.6134ZM31.0975 30.0395L31.2586 30.1999V30.0395C31.3858 30.0074 31.5147 30.0074 31.5469 30.1679C31.5147 30.1679 31.3553 30.232 31.2586 30.264H31.1297C31.0975 30.264 31.0008 30.264 31.0008 30.1999L31.0975 30.0395ZM0.320563 37.1C0.320563 37.2605 0.352787 37.2925 0.417237 37.3567C0.802246 37.1962 0.512219 36.7149 0.320563 37.1ZM22.6256 28.2421C22.5611 28.178 22.4322 28.2101 22.3356 28.2744L22.2084 28.178C22.3356 28.1137 22.4645 28.0176 22.5934 27.9212L22.7206 28.0176C22.6256 28.0817 22.6578 28.178 22.6256 28.2421ZM30.1358 36.6506C30.0714 36.6506 30.0069 36.6506 29.9425 36.6185C29.878 36.5544 29.8458 36.4901 29.8136 36.426C29.9102 36.4901 30.0069 36.5224 30.1036 36.5224L30.0713 36.3297H30.1663L30.3919 36.5224C30.2952 36.5544 30.1986 36.5865 30.1358 36.6506ZM31.7081 27.3436C31.6436 27.2472 31.4503 27.2794 31.3858 27.4078C31.3858 27.504 31.4503 27.5361 31.4825 27.6003C31.6436 27.6324 31.7725 27.5361 31.7081 27.3436ZM29.9747 28.6594C29.9747 28.7878 29.9425 28.9162 29.8458 28.9162H29.7491L29.8136 28.8198C29.6541 28.8198 29.5574 28.6594 29.5574 28.5632H29.7186V28.6594H29.9747ZM32.7664 32.2539C32.5748 32.2539 32.4136 32.1897 32.317 32.0293C32.317 31.9971 32.4136 31.9971 32.5103 31.9971C32.6697 31.965 32.7664 32.0934 32.7664 32.2539ZM0.802241 38.127L0.929454 38.0627C1.18726 37.5171 0.479988 37.8059 0.802241 38.127ZM23.1378 7.12474C23.1073 7.44567 22.9784 7.70242 22.6901 7.70242L23.1378 7.12474ZM2.69507 34.5325C2.63062 34.5325 2.56617 34.4682 2.50341 34.4682C2.34228 34.5966 2.5034 34.7571 2.56616 34.8534C2.69506 34.7893 2.72729 34.693 2.69507 34.5325ZM32.0931 29.9431C32.2203 29.9111 32.2847 29.8468 32.2203 29.6863H32.1898V29.6222H32.1253L32.1575 29.6863C32.0609 29.6543 31.9642 29.7186 31.9642 29.7827L31.8675 29.8147L32.0286 29.9752L32.0931 29.9431ZM9.33858 10.7513C9.43526 10.8155 9.59468 10.7513 9.65913 10.6871C9.69135 10.3662 9.27413 10.4945 9.33858 10.7513ZM30.3597 29.1409C30.3597 29.205 30.3597 29.205 30.4241 29.3013C30.4241 29.3013 30.263 29.3975 30.1663 29.3975L30.0069 29.3334C30.0391 29.1729 30.2308 29.1409 30.3597 29.1409ZM30.8414 24.9044C30.6803 24.9365 30.5836 25.0008 30.5836 25.1292C30.6158 25.1292 30.648 25.1292 30.648 25.1933C30.8414 25.2253 31.033 25.0328 30.8414 24.9044ZM22.4645 19.7696C22.5612 19.8337 22.4 19.9621 22.2406 20.0905C22.3033 20.1546 22.3678 20.1868 22.4967 20.0584C22.4645 20.1546 22.3678 20.283 22.3033 20.3793C22.2406 20.315 22.1761 20.2509 22.1439 20.1868L22.4645 19.7696ZM6.41794 35.7841C6.35349 35.8804 6.28904 35.9447 6.28904 36.0729C6.35349 36.1051 6.38571 36.1372 6.45016 36.1372L6.57907 36.0088C6.54685 35.8804 6.51462 35.7841 6.41794 35.7841ZM35.9754 38.4479C36.1365 38.48 36.3282 38.5442 36.2976 38.7047L36.1043 38.8009C36.1043 38.6404 35.9754 38.512 35.8804 38.4479H35.9754ZM21.0211 29.3975C20.7955 29.4297 20.5394 29.1729 20.5072 29.0445L21.0211 29.3013V29.3975ZM28.6908 13.5755C28.5941 13.5113 28.4974 13.5434 28.4346 13.5113C28.2735 13.6718 28.5941 13.8964 28.6908 13.736V13.5755ZM30.5836 7.95916L30.6803 7.92707C30.6803 7.92707 30.7125 7.70242 30.7125 7.60614C30.5836 7.67031 30.3597 7.95916 30.4241 7.99125C30.4241 8.02335 30.5836 7.95916 30.5836 7.95916ZM8.9858 9.33918C8.88912 9.2429 8.72799 9.27499 8.66523 9.40336C8.66523 9.46756 8.72799 9.49965 8.76021 9.56383C8.88911 9.56383 8.9858 9.46756 8.9858 9.33918ZM29.3319 4.52517V4.65355L28.6908 5.3275C28.8519 5.07076 29.0758 4.78192 29.3319 4.52517ZM26.2196 4.30051V4.3326C26.1229 4.55726 26.0907 4.68564 25.9312 4.71773H25.8346C25.9313 4.62144 26.0584 4.30051 26.2196 4.30051ZM28.9146 25.0328C28.8519 25.0328 28.8519 25.0008 28.8197 25.0008C28.6585 25.0328 28.6263 25.0971 28.6263 25.2253C28.6908 25.2253 28.6907 25.2896 28.723 25.2896C28.8841 25.2576 28.9469 25.1612 28.9146 25.0328ZM34.7881 31.6441C34.8204 31.7405 34.7881 31.8687 34.6915 31.9009L34.8204 32.0614V31.9009C34.9815 31.8687 34.9815 31.965 35.0782 31.965C35.0782 31.8366 34.9493 31.7082 34.7881 31.6441ZM5.48679 36.6506C5.55124 36.779 5.42234 36.779 5.39012 36.8112V36.9716C5.55125 36.9394 5.51902 36.8112 5.64792 36.8433C5.7446 36.6828 5.6157 36.5224 5.48679 36.6506ZM21.0533 29.4618H21.1805C21.3094 29.4618 21.4706 29.6222 21.5011 29.7827C21.3417 29.8147 21.1806 29.558 21.0533 29.4618ZM2.56616 37.2925C2.47118 37.4209 2.53393 37.6455 2.72729 37.5493C2.82396 37.4209 2.72728 37.1962 2.56616 37.2925ZM24.454 7.47776H24.5184L24.1012 8.02335V7.89498C24.1012 7.7666 24.2945 7.60614 24.454 7.47776ZM33.6976 32.5748C33.7942 32.5427 33.8892 32.6068 33.9537 32.7031L33.7298 32.8956L33.6976 32.7995L33.6331 32.5748H33.6976ZM31.5469 30.5851C31.6759 30.5851 31.803 30.6813 31.9319 30.6813V30.8417C31.803 30.8417 31.5469 30.7455 31.5469 30.5851ZM29.3319 34.019C29.2047 34.0832 29.108 33.8585 29.1402 33.7622C29.3013 33.6981 29.493 33.9228 29.3319 34.019ZM19.4149 28.178H19.3522L18.8383 27.7608C18.935 27.7928 19.2877 27.9855 19.3844 27.9855C19.4149 28.0176 19.3844 28.146 19.4149 28.178ZM25.2562 30.5208C25.129 30.4567 24.9679 30.3604 24.9356 30.264C25.0968 30.232 25.1918 30.2963 25.3207 30.3604C25.2884 30.4245 25.2562 30.4567 25.2562 30.5208ZM27.3102 4.78192C27.3102 4.49308 27.4713 4.62144 27.6324 4.49308L27.6629 4.52517L27.3102 4.87819V4.78192ZM28.9791 12.0029C28.723 12.1955 28.5941 12.3559 28.5941 12.5164C28.7552 12.4522 28.8841 12.1634 28.9791 12.0029ZM1.86059 37.7418C1.92504 37.6455 1.92504 37.4209 1.76392 37.485C1.63671 37.5814 1.66894 37.8382 1.86059 37.7418ZM8.47188 8.92196C8.53633 8.88987 8.633 8.85777 8.60078 8.72939C8.5041 8.63312 8.31076 8.72939 8.31076 8.82568C8.37521 8.85777 8.37521 8.95405 8.47188 8.92196ZM2.50341 35.1102C2.53394 35.0459 2.50341 34.9175 2.50341 34.8534C2.43896 34.8855 2.43896 34.8214 2.34228 34.8855C2.27783 35.0139 2.34228 35.1743 2.50341 35.1102ZM9.20967 11.4252L9.17745 11.2327L8.79245 11.1043C8.79245 11.1364 9.14522 11.4252 9.20967 11.4252ZM28.6263 35.4952H28.8197C28.8841 35.6236 28.9791 35.752 29.108 35.8804C28.9146 35.7841 28.7552 35.6558 28.6263 35.4952ZM34.4998 32.8315C34.5643 32.8315 34.5643 32.7031 34.4998 32.6711C34.5643 32.639 34.532 32.5106 34.4676 32.5106C34.3387 32.5106 34.3387 32.639 34.4354 32.6711C34.3387 32.7031 34.3709 32.8315 34.4998 32.8315ZM31.9964 32.1255C32.0931 32.1255 32.1253 32.2539 32.0286 32.2859C32.1253 32.318 32.1253 32.4464 32.0286 32.4464C31.932 32.4786 31.8997 32.318 31.9964 32.2859C31.8997 32.318 31.8997 32.1575 31.9964 32.1255ZM31.9642 3.97958C31.8997 3.97958 31.7081 4.04376 31.7081 4.26842L31.8031 4.23633C31.8997 4.23633 31.9642 4.10795 31.9642 3.97958ZM30.5836 37.3246C30.2952 37.3246 30.1358 37.1642 29.9425 36.9716C30.0391 37.0358 30.3919 37.1962 30.5836 37.3246ZM21.3739 7.92707C21.3739 7.92707 21.5011 7.83078 21.5011 7.70242C21.4706 7.73451 21.245 7.92707 21.245 7.95916C21.1161 8.44057 21.2128 8.21591 21.3739 7.92707ZM27.3102 3.30561L27.568 3.14514C27.4713 3.14514 27.4713 3.04888 27.4713 2.95259H27.3746L27.3102 3.30561ZM1.79615 35.0782C1.79615 34.9498 1.76392 34.8855 1.66894 34.9175C1.47558 35.0139 1.66894 35.3027 1.79615 35.0782ZM24.4217 32.4464L24.454 32.5427C24.454 32.7031 24.5507 32.7995 24.7118 32.8636H24.744C24.7118 32.7674 24.5507 32.639 24.5507 32.5427L24.4217 32.4464ZM3.17674 38.3516C3.14452 38.48 3.2412 38.5763 3.33618 38.5442C3.33618 38.48 3.43286 38.48 3.40063 38.3836C3.36841 38.3195 3.30565 38.2875 3.17674 38.3516ZM27.5357 11.7783C27.6324 11.8104 27.568 11.8746 27.6324 11.9066C27.7596 11.8746 27.7274 11.8104 27.7918 11.7141C27.6629 11.6178 27.6002 11.6178 27.5357 11.7783ZM20.2816 26.5413C20.2816 26.6375 20.1544 26.6695 20.2189 26.7659C20.3139 26.7979 20.3783 26.7659 20.4428 26.7018C20.4105 26.5734 20.3461 26.5413 20.2816 26.5413ZM33.5687 34.1153L33.5364 33.9228H33.6009C33.6009 33.9228 33.8892 34.051 33.9859 34.051L33.5687 34.1153ZM30.1663 3.65865L30.2952 3.24143L30.1663 3.30561C30.1663 3.30561 30.0391 3.65865 30.1663 3.65865ZM2.63061 35.9767C2.47118 36.2335 2.85619 36.2656 2.79174 35.9767C2.72729 35.9767 2.69506 35.9447 2.63061 35.9767ZM4.6201 38.2875C4.6201 38.3195 4.58788 38.3195 4.55735 38.3516C4.55735 38.4479 4.55734 38.48 4.6201 38.5442C4.71677 38.5442 4.71678 38.48 4.74901 38.4159C4.74901 38.3516 4.68455 38.2875 4.6201 38.2875ZM31.5469 5.841V5.74471C31.3858 5.841 31.3231 5.93727 31.3231 6.09775L31.3553 6.16193L31.4825 5.90518L31.5469 5.841ZM22.5612 7.95916H22.6578L22.2728 8.37637C22.3356 8.15173 22.4967 7.99125 22.5612 7.95916ZM32.1898 3.72283C32.1898 3.65865 32.1575 3.59445 32.0931 3.59445C32.0286 3.59445 32.0609 3.81911 32.1253 3.81911C32.1575 3.81911 32.1575 3.8512 32.2203 3.8512C32.317 3.8512 32.2847 3.72283 32.1898 3.72283ZM25.3207 15.6615L24.9034 16.0788L25.2562 15.5654L25.3207 15.6615ZM31.5792 4.81401H31.4825C31.3231 4.81401 31.2586 4.91028 31.2908 4.97448C31.4503 4.97448 31.5147 4.97448 31.5792 4.81401ZM28.5618 4.01167C28.5618 4.04377 28.3058 4.30051 28.2091 4.3326C28.1124 4.3326 28.5618 3.9154 28.5618 4.01167ZM26.7013 3.62656C26.7335 3.59445 26.9251 3.33772 26.9251 3.24143C26.7013 3.33772 26.7013 3.49818 26.7013 3.62656ZM25.129 33.1845H25.0968C25.0645 33.1204 25.0646 33.0883 25.0323 33.0883C25.0001 33.1204 25.0001 33.2808 25.0323 33.2488H25.0646C25.0323 33.3129 25.0646 33.3451 25.129 33.3451C25.2562 33.3451 25.2562 33.1845 25.129 33.1845ZM33.5042 32.8956L33.4092 32.992C33.3448 32.992 33.1192 32.8636 33.1192 32.7995L33.5042 32.8956ZM27.2152 2.79212L27.0541 2.98468V3.08097C27.183 3.04888 27.2152 2.95259 27.3102 2.88841L27.2152 2.79212ZM27.7274 5.87309C27.6324 5.87309 27.6324 5.74471 27.6952 5.71262C27.6002 5.68053 27.6002 5.55216 27.6952 5.55216C27.7596 5.52007 27.7918 5.68053 27.7274 5.71262C27.7918 5.68053 27.7918 5.841 27.7274 5.87309ZM31.3231 2.66375C31.2908 2.66375 31.2586 2.69584 31.2586 2.69584C31.2908 2.66375 31.2908 2.63166 31.2908 2.56746C31.2908 2.50328 31.0653 2.76003 31.1619 2.76003C31.1942 2.76003 31.2264 2.72793 31.2586 2.69584C31.2264 2.76003 31.2586 2.82421 31.3231 2.82421C31.3858 2.82421 31.3858 2.66375 31.3231 2.66375ZM31.6758 4.39679C31.5792 4.42888 31.4825 4.49308 31.418 4.55726V4.65355C31.4825 4.65355 31.6758 4.55726 31.6758 4.39679ZM5.7446 35.6558C5.64792 35.752 5.68015 35.9447 5.83958 35.8483C5.90403 35.752 5.83958 35.6236 5.7446 35.6558ZM34.8848 36.9074C34.8848 37.0358 34.6609 37.0358 34.6609 36.9074C34.6609 36.8112 34.8848 36.8112 34.8848 36.9074ZM34.8204 34.3078C34.917 34.3078 34.917 34.5325 34.8204 34.5325C34.6915 34.5325 34.6915 34.3078 34.8204 34.3078ZM24.069 6.99636C24.0367 6.96427 24.0367 6.8359 24.069 6.8359C24.1656 6.8359 24.1979 6.99636 24.1012 6.99636H24.069C24.1012 7.02845 24.1012 7.18892 24.069 7.18892C23.9418 7.18892 23.9418 6.99636 24.069 6.99636ZM29.3013 26.7018C29.3641 26.7018 29.3319 26.5413 29.2691 26.5413C29.2691 26.5091 29.2369 26.445 29.1724 26.445C29.108 26.445 29.1402 26.6054 29.2047 26.6054C29.2047 26.6375 29.2369 26.7018 29.3013 26.7018ZM35.2698 32.639H35.302C35.302 32.6711 35.3343 32.7031 35.3665 32.7031C35.4954 32.6711 35.4954 32.5106 35.3665 32.5427H35.3343C35.3343 32.5106 35.302 32.4786 35.2698 32.4786C35.2376 32.4786 35.2376 32.639 35.2698 32.639ZM9.08247 9.14661C9.08247 9.01823 8.9858 9.01823 8.88912 9.01823C8.88912 9.05034 8.85689 9.08243 8.82467 9.14661C8.88912 9.17872 9.01802 9.17872 9.08247 9.14661ZM29.5252 27.7928C29.5897 27.7928 29.5897 27.8249 29.5897 27.8892C29.5897 27.8892 29.5897 27.8571 29.6219 27.8571C29.6863 27.8571 29.6863 28.0176 29.6219 28.0176C29.5574 28.0496 29.5252 27.9855 29.5574 27.9212H29.5252C29.4286 27.9212 29.4286 27.7928 29.5252 27.7928ZM30.938 29.0125V28.9162C30.9058 28.8841 30.8414 28.852 30.8092 28.852H30.7769C30.8091 28.9162 30.8092 29.1087 30.8092 29.1729L30.938 29.0125ZM23.9723 7.63823C24.1012 7.63823 24.1012 7.86289 23.9723 7.86289C23.8773 7.86289 23.8773 7.63823 23.9723 7.63823ZM27.4068 9.30708C27.4068 9.14661 27.5035 8.98614 27.6952 8.98614L27.4068 9.30708ZM25.5462 4.17213C25.6412 4.17213 25.609 3.94749 25.514 3.94749C25.4173 3.94749 25.4496 4.17213 25.5462 4.17213ZM27.2152 6.12984C27.3424 6.12984 27.3746 6.3224 27.2474 6.3224C27.1507 6.35448 27.1185 6.16193 27.2152 6.12984ZM19.9611 28.6594C19.8644 28.6594 19.8322 28.4348 19.9288 28.4348C20.0255 28.4348 20.0578 28.6594 19.9611 28.6594ZM32.4781 30.4567V30.1999L32.317 30.2963C32.317 30.3924 32.4136 30.4567 32.4781 30.4567ZM3.97899 10.3341C4.01121 10.1736 3.85009 10.1736 3.78564 10.2378V10.3341C3.88231 10.3341 3.91454 10.3983 3.97899 10.3341ZM25.3851 33.5056C25.2884 33.5056 25.3207 33.6981 25.4173 33.6981C25.5462 33.6981 25.514 33.5056 25.3851 33.5056ZM9.05025 10.2378C9.01803 10.2057 8.85689 10.2057 8.82467 10.2699V10.3662C8.95357 10.3662 9.05025 10.3341 9.05025 10.2378ZM22.3678 8.92196C22.3678 9.08243 22.2084 9.17872 22.1117 9.17872H22.0472C22.1117 9.08243 22.3034 9.01823 22.3678 8.92196ZM23.0106 28.7237C23.0428 28.7557 23.0751 28.7557 23.1378 28.7557C23.2023 28.7557 23.2345 28.7237 23.2667 28.7237C23.2345 28.7557 23.2345 28.8198 23.2989 28.8841C23.3312 28.9482 23.3634 28.9482 23.3956 28.9482H23.3312L23.0106 28.7237ZM27.2779 8.88987C27.3424 8.88987 27.3746 9.01823 27.3102 9.05034C27.3746 9.08243 27.3746 9.21081 27.3102 9.21081C27.2779 9.2429 27.2474 9.08243 27.2779 9.05034C27.2474 9.08243 27.2474 8.92196 27.2779 8.88987ZM32.4459 3.53027C32.5425 3.53027 32.5425 3.30561 32.4459 3.30561C32.3492 3.33772 32.3492 3.53027 32.4459 3.53027ZM28.5296 5.48796L28.4669 5.64843C28.4669 5.64843 28.2735 5.55216 28.2735 5.45587C28.3057 5.45587 28.4974 5.52007 28.5296 5.48796ZM25.7057 5.55216L25.9635 5.23123H25.8668C25.8668 5.23123 25.7057 5.39169 25.7057 5.48796V5.55216ZM7.7341 37.1321C7.6052 37.1642 7.6052 37.3567 7.7341 37.3246C7.83077 37.3246 7.83077 37.1321 7.7341 37.1321ZM29.9747 27.119C30.0069 27.0547 29.9747 26.9263 29.878 26.9584C29.878 27.0227 29.7813 27.0547 29.7813 27.119C29.878 27.0868 29.878 27.1831 29.9747 27.119ZM30.8092 2.95259V3.11305L30.9686 2.76003C30.8092 2.76003 30.8092 2.8563 30.8092 2.95259ZM19.8966 10.5587C19.9933 10.5587 19.9933 10.7513 19.8966 10.7513C19.7694 10.7513 19.7694 10.5587 19.8966 10.5587ZM28.723 1.34792C28.8197 1.31583 28.8197 1.09117 28.723 1.12326C28.6263 1.12326 28.6263 1.34792 28.723 1.34792ZM24.6151 29.9431C24.6795 29.8147 24.5506 29.9111 24.4862 29.879V29.7827C24.5184 29.7827 24.5506 29.7827 24.5829 29.7506C24.6473 29.8147 24.7118 29.879 24.744 29.9752C24.6796 29.879 24.6473 29.9431 24.6151 29.9431ZM25.8346 13.4792C25.899 13.4792 25.9312 13.415 25.9312 13.3508C25.899 13.2867 25.8668 13.3188 25.8023 13.2867C25.7379 13.3829 25.7379 13.4471 25.8346 13.4792ZM33.3448 38.2554C33.2159 38.127 33.087 38.0627 32.9598 37.9023L33.2159 38.0307C33.2803 38.0948 33.3126 38.1591 33.3448 38.2554ZM35.4309 32.9279C35.6548 32.992 35.5259 32.7674 35.3987 32.7995C35.302 32.7995 35.3343 32.9279 35.4309 32.9279ZM28.8519 27.9533C28.9469 27.9533 28.9469 28.146 28.8519 28.178C28.7552 28.178 28.7552 27.9533 28.8519 27.9533ZM33.762 32.0934C33.857 32.0934 33.8892 32.2859 33.7942 32.2859C33.6976 32.318 33.6653 32.1255 33.762 32.0934ZM4.42844 10.8797C4.42844 10.7834 4.42845 10.6871 4.29955 10.7192C4.29955 10.7834 4.26732 10.8155 4.26732 10.8476C4.29954 10.8797 4.33177 10.9117 4.42844 10.8797ZM29.6864 26.5413L29.6219 26.4129C29.5252 26.4129 29.4608 26.445 29.493 26.5413C29.5575 26.5734 29.5897 26.5734 29.6864 26.5413ZM34.532 33.666V33.7622L34.3709 33.9228L34.2742 33.8906L34.532 33.666ZM20.4105 29.3013C20.3461 29.3013 20.3139 29.0766 20.3783 29.0766C20.475 29.0766 20.5072 29.3013 20.4105 29.3013ZM29.7813 34.3078C29.878 34.3078 29.878 34.5325 29.7813 34.5325C29.7186 34.5325 29.7186 34.3078 29.7813 34.3078ZM26.6046 6.29031C26.7013 6.25822 26.7013 6.41868 26.6046 6.45077C26.4757 6.45077 26.4757 6.29031 26.6046 6.29031ZM31.2264 0.930702C31.2908 0.930702 31.2586 0.706058 31.1942 0.706058C31.0975 0.738148 31.1297 0.930702 31.2264 0.930702ZM32.0608 36.7469C31.9319 36.7469 31.9319 36.5865 32.0608 36.5865C32.1575 36.5544 32.1575 36.7149 32.0608 36.7469ZM29.6541 3.43399C29.7813 3.43399 29.7491 3.20934 29.6219 3.20934C29.5897 3.20934 29.6219 3.43399 29.6541 3.43399ZM32.702 31.0664C32.7664 31.0664 32.7986 31.291 32.7342 31.291C32.6375 31.291 32.607 31.0664 32.702 31.0664ZM32.4136 0.866523C32.4781 0.866523 32.4458 0.641861 32.3814 0.641861C32.2847 0.641861 32.317 0.866523 32.4136 0.866523ZM30.7125 4.3326H30.7769C30.8736 4.3326 30.9686 4.07586 30.9686 4.04377C30.7769 4.07586 30.8736 4.30051 30.7125 4.3326ZM30.3919 7.70242C30.5208 7.70242 30.5208 7.57405 30.4241 7.54194H30.3919C30.2952 7.54194 30.2952 7.70242 30.3919 7.70242ZM24.4862 21.9199C24.6151 21.9199 24.6151 21.7592 24.4862 21.7592C24.3895 21.7592 24.3895 21.9199 24.4862 21.9199ZM31.7725 32.7352C31.8997 32.7352 31.8997 32.8956 31.7725 32.8956C31.6758 32.8956 31.6758 32.7352 31.7725 32.7352ZM32.4781 33.3129C32.3814 33.3129 32.3814 33.1204 32.4781 33.1204C32.5748 33.1204 32.5748 33.3129 32.4781 33.3129ZM28.0174 32.0293C27.9207 32.0293 27.9207 31.8687 28.0174 31.8687C28.1446 31.8687 28.1446 32.0293 28.0174 32.0293ZM30.263 5.23123C30.1663 5.23123 30.1663 5.39169 30.263 5.39169C30.3919 5.39169 30.3919 5.23123 30.263 5.23123ZM20.2816 29.7506C20.1866 29.7827 20.1866 29.9752 20.2816 29.9431C20.3783 29.9431 20.3783 29.7506 20.2816 29.7506ZM22.8817 8.79359C22.7528 8.79359 22.7206 8.63312 22.8495 8.63312C22.9462 8.63312 22.9784 8.79359 22.8817 8.79359ZM26.6368 6.93217C26.7335 6.93217 26.7335 7.09263 26.6368 7.09263C26.5079 7.12474 26.5079 6.96426 26.6368 6.93217ZM29.4608 2.50328C29.5574 2.50328 29.5574 2.34282 29.4608 2.34282C29.3319 2.37491 29.3319 2.53537 29.4608 2.50328ZM31.7081 31.2589C31.6114 31.2589 31.5792 31.0985 31.6758 31.0985C31.803 31.0985 31.8353 31.2589 31.7081 31.2589ZM31.8353 0.224645C31.8997 0.224645 31.8997 0 31.8353 0C31.7403 0 31.7403 0.224645 31.8353 0.224645ZM27.0218 24.4552C26.9252 24.4552 26.9252 24.6799 27.0218 24.6799C27.0863 24.6799 27.0863 24.4552 27.0218 24.4552ZM29.0113 28.6594C28.9146 28.6914 28.9146 28.4669 29.0113 28.4348C29.0758 28.4348 29.0758 28.6594 29.0113 28.6594ZM21.0533 8.02335H20.9567C20.9567 8.02335 20.8278 8.21591 20.8278 8.248L20.9244 8.21591C20.9889 8.11962 21.0533 8.05544 21.0533 8.02335ZM31.418 3.36981C31.3858 3.33772 31.3553 3.27352 31.3553 3.24143L31.2586 3.33772V3.36981L31.418 3.49818V3.36981ZM34.4998 36.6185C34.4998 36.5224 34.6609 36.5544 34.6609 36.6506C34.6287 36.7469 34.4676 36.7469 34.4998 36.6185ZM27.1185 16.7848C27.0863 16.8812 27.2152 17.0096 27.2779 16.9132C27.3102 16.8169 27.1829 16.7528 27.1185 16.7848ZM29.3963 3.72283C29.5252 3.69074 29.5252 3.46609 29.3963 3.49818C29.3641 3.49818 29.3641 3.72283 29.3963 3.72283ZM31.8031 35.2386C31.6759 35.2386 31.6436 35.1423 31.7725 35.1423C31.803 35.1423 31.8031 35.2386 31.8031 35.2386C31.8997 35.2386 31.932 35.3991 31.8353 35.3991C31.8031 35.3991 31.8031 35.2386 31.8031 35.2386ZM28.8519 26.0598C28.8841 26.1882 28.9469 26.1561 29.0436 26.1241C29.0436 25.9957 28.8841 25.9957 28.8519 26.0598ZM10.0764 8.60103C10.0441 8.56893 9.97969 8.56893 9.91693 8.60103V8.72939C10.0119 8.72939 10.1086 8.6973 10.0764 8.60103ZM24.2301 31.933C24.1979 31.9009 24.1334 31.8687 24.1012 31.8687C24.1012 31.933 24.1334 31.965 24.1656 31.9971C24.1979 32.0293 24.1979 32.0614 24.2623 32.0614C24.2623 32.0614 24.2945 32.0934 24.3268 32.0934L24.2623 31.9971C24.2623 31.965 24.2623 31.933 24.2301 31.933ZM30.4564 35.3348C30.4564 35.2707 30.4886 35.2064 30.5208 35.2064C30.5836 35.2064 30.6158 35.367 30.5513 35.4311L30.4564 35.3348ZM3.2412 35.0139C3.17675 35.0139 3.20897 34.8534 3.11229 34.8855C2.98339 34.9818 3.17675 35.1423 3.2412 35.0139ZM32.0931 35.9767C31.9642 36.0088 31.9319 35.8163 32.0608 35.7841C32.0931 35.7841 32.1253 35.9767 32.0931 35.9767ZM20.2494 28.4989C20.3461 28.4989 20.3783 28.6594 20.2816 28.6594C20.1866 28.6914 20.1544 28.531 20.2494 28.4989ZM28.0174 6.29031C27.9207 6.29031 27.8885 6.09775 27.9852 6.09775C28.0496 6.09775 28.0802 6.29031 28.0174 6.29031ZM22.2084 30.7455C22.1439 30.7455 22.1761 30.938 22.2406 30.938C22.3356 30.938 22.3033 30.7455 22.2084 30.7455ZM30.648 7.2531H30.6158L30.5513 7.50985C30.648 7.41358 30.7447 7.2531 30.7447 7.22101C30.7125 7.22101 30.6803 7.2531 30.648 7.2531ZM31.7403 5.58425C31.8031 5.58425 31.7725 5.39169 31.7081 5.39169C31.6114 5.39169 31.6436 5.58425 31.7403 5.58425ZM27.3102 5.61634C27.3424 5.61634 27.3746 5.80891 27.3424 5.80891C27.2152 5.80891 27.183 5.61634 27.3102 5.61634ZM26.669 5.64843C26.7979 5.64843 26.8302 5.841 26.7013 5.841C26.669 5.841 26.6368 5.64843 26.669 5.64843ZM30.7769 2.18235C30.8736 2.18235 30.8414 2.02189 30.7447 2.02189C30.648 2.02189 30.6802 2.18235 30.7769 2.18235ZM30.5208 29.3013C30.6158 29.3013 30.648 29.4618 30.5513 29.4618C30.4564 29.4618 30.4241 29.3013 30.5208 29.3013ZM27.6629 6.64333C27.5679 6.64333 27.5679 6.48286 27.6629 6.48286C27.7596 6.48286 27.7596 6.64333 27.6629 6.64333ZM29.4285 9.21081C29.5252 9.21081 29.493 9.05034 29.3963 9.05034C29.3013 9.05034 29.3319 9.21081 29.4285 9.21081ZM29.2691 6.54706C29.1724 6.54706 29.1724 6.38659 29.2691 6.38659C29.3641 6.38659 29.3641 6.54706 29.2691 6.54706ZM29.2369 5.61634C29.3319 5.61634 29.3319 5.7768 29.2369 5.7768C29.1402 5.7768 29.1402 5.61634 29.2369 5.61634ZM28.7874 26.9906C28.8841 26.9906 28.8841 26.8302 28.7874 26.8302C28.6908 26.8302 28.6908 26.9906 28.7874 26.9906ZM27.8885 5.68053C27.7918 5.68053 27.7596 5.52007 27.8563 5.52007C27.953 5.52007 27.9852 5.68053 27.8885 5.68053ZM36.0721 38.3836C36.0721 38.2875 36.2332 38.2875 36.2332 38.3836C36.2332 38.48 36.0721 38.48 36.0721 38.3836ZM22.4645 8.82568C22.3678 8.82568 22.3356 8.66521 22.4323 8.66521C22.5289 8.66521 22.5612 8.82568 22.4645 8.82568ZM31.0653 3.11305C31.1619 3.11305 31.1619 2.95259 31.0653 2.95259C30.9686 2.95259 30.9686 3.11305 31.0653 3.11305ZM21.7911 8.79359C21.8878 8.79359 21.8878 8.95405 21.7911 8.95405C21.6945 8.95405 21.6945 8.79359 21.7911 8.79359ZM23.5873 31.965C23.6839 31.965 23.6839 31.8046 23.5873 31.8046C23.4923 31.8046 23.4923 31.965 23.5873 31.965ZM30.2952 29.7186C30.3919 29.7186 30.3919 29.879 30.2952 29.879C30.1986 29.879 30.1986 29.7186 30.2952 29.7186ZM28.0802 2.08607C28.1768 2.08607 28.1768 1.9256 28.0802 1.9256C27.9852 1.9256 27.9852 2.08607 28.0802 2.08607ZM30.5513 29.9752C30.648 29.9752 30.6802 30.1356 30.5836 30.1356C30.4886 30.1356 30.4564 29.9752 30.5513 29.9752ZM29.9102 33.6017C29.8136 33.6017 29.7813 33.4413 29.878 33.4413C29.9747 33.4413 30.0069 33.6017 29.9102 33.6017ZM32.5425 5.00657C32.6375 5.00657 32.607 4.8461 32.5103 4.8461C32.4136 4.8461 32.4459 5.00657 32.5425 5.00657ZM28.0174 6.70752C27.9207 6.70752 27.9207 6.51495 28.0174 6.51495C28.0802 6.51495 28.0802 6.70752 28.0174 6.70752ZM29.108 6.64333C29.0113 6.64333 29.0113 6.45077 29.108 6.45077C29.1724 6.45077 29.1724 6.64333 29.108 6.64333ZM31.9964 1.79723C32.0931 1.79723 32.0931 1.60467 31.9964 1.60467C31.932 1.60467 31.932 1.79723 31.9964 1.79723ZM27.3424 2.72793C27.4391 2.72793 27.4391 2.53537 27.3424 2.53537C27.2779 2.53537 27.2779 2.72793 27.3424 2.72793ZM29.7491 29.2371C29.8458 29.2371 29.8458 29.4297 29.7491 29.4297C29.6864 29.4297 29.6864 29.2371 29.7491 29.2371ZM33.5042 33.2488C33.4092 33.2488 33.4092 33.0563 33.5042 33.0563C33.5687 33.0563 33.5687 33.2488 33.5042 33.2488ZM27.7274 31.5798C27.7918 31.5798 27.7918 31.7725 27.7274 31.7725C27.6324 31.7725 27.6324 31.5798 27.7274 31.5798ZM32.8631 33.9548C32.7664 33.9548 32.7664 33.7622 32.8631 33.7622C32.9276 33.7622 32.9276 33.9548 32.8631 33.9548ZM27.7274 2.9205C27.8241 2.9205 27.8241 2.76003 27.7274 2.76003C27.6324 2.79212 27.6324 2.95259 27.7274 2.9205ZM27.8885 10.4945C27.7918 10.4945 27.7918 10.3341 27.8885 10.3341C27.9852 10.302 27.9852 10.4624 27.8885 10.4945ZM27.7596 8.37637C27.6629 8.37637 27.6629 8.21591 27.7596 8.21591C27.8563 8.18382 27.8563 8.34428 27.7596 8.37637ZM28.9791 5.61634C29.0758 5.61634 29.0758 5.7768 28.9791 5.7768C28.8841 5.80891 28.8841 5.64844 28.9791 5.61634ZM31.8353 4.52517C31.932 4.52517 31.932 4.36471 31.8353 4.36471C31.7403 4.39679 31.7403 4.55726 31.8353 4.52517ZM29.4608 26.8622C29.5574 26.8302 29.5574 26.6695 29.4608 26.7018C29.3641 26.7018 29.3641 26.8622 29.4608 26.8622ZM31.7403 2.98468C31.8353 2.95259 31.8353 2.79212 31.7403 2.82421C31.6436 2.82421 31.6436 2.98468 31.7403 2.98468ZM25.9635 24.1984C25.8668 24.2306 25.8668 24.07 25.9635 24.0379C26.0584 24.0379 26.0584 24.1984 25.9635 24.1984ZM32.6375 36.2976C32.5425 36.2976 32.5425 36.1372 32.6375 36.1372C32.7342 36.1051 32.7342 36.2656 32.6375 36.2976ZM30.0713 24.0379C30.0391 24.0059 30.0391 23.9738 30.0391 23.9417C29.9425 23.9738 29.8458 23.9738 29.9102 24.07C29.9425 24.1022 30.0391 24.1022 30.0713 24.0379ZM31.7081 36.2335C31.8353 36.2335 31.8353 36.394 31.7403 36.426H31.7081C31.6759 36.3617 31.6759 36.2335 31.7081 36.2335ZM1.47559 35.2386C1.41114 35.2707 1.41113 35.3027 1.41113 35.367C1.41113 35.3991 1.44336 35.4311 1.50781 35.3991C1.54003 35.367 1.54004 35.3027 1.54004 35.2386C1.50782 35.2386 1.47559 35.2707 1.47559 35.2386ZM27.6002 25.5464C27.6002 25.5785 27.6002 25.5785 27.568 25.6105C27.568 25.5785 27.5357 25.5785 27.5035 25.5785V25.5142C27.4391 25.4501 27.4068 25.418 27.3746 25.418L27.4391 25.3537L27.6002 25.5464ZM28.338 6.70752L28.4346 6.57915H28.4974L28.5941 6.67543L28.338 6.70752ZM30.263 5.03866C30.3919 5.03866 30.3919 4.97448 30.3919 4.87819C30.263 4.87819 30.2308 4.94239 30.263 5.03866ZM34.6915 31.7405C34.7881 31.7405 34.7559 31.6121 34.6609 31.6121C34.532 31.6121 34.5643 31.7405 34.6915 31.7405ZM34.9493 32.0293C34.8204 32.0614 34.8204 32.2539 34.9493 32.2218C34.9815 32.2218 34.9815 32.0293 34.9493 32.0293ZM26.8929 2.76003C26.9251 2.76003 26.9251 2.56746 26.8929 2.56746C26.7657 2.56746 26.7657 2.76003 26.8929 2.76003ZM30.4886 4.71773C30.6158 4.71773 30.6158 4.58935 30.4886 4.58935C30.3919 4.58935 30.3919 4.71773 30.4886 4.71773ZM5.51903 37.0678C5.3596 37.1 5.4868 37.2925 5.55125 37.2925C5.58347 37.2283 5.51903 37.1642 5.51903 37.0678ZM31.5792 30.8739C31.6758 30.8739 31.6758 31.0985 31.5792 31.0985C31.5469 31.0985 31.5469 30.8739 31.5792 30.8739ZM26.7979 5.42378C26.8302 5.42378 26.8302 5.58425 26.7979 5.58425C26.669 5.58425 26.669 5.42378 26.7979 5.42378ZM20.1222 10.302C20.1544 10.302 20.1544 10.1415 20.1222 10.1415C19.9933 10.1415 19.9933 10.302 20.1222 10.302ZM23.5245 6.86799C23.555 6.86799 23.555 6.70752 23.5245 6.70752C23.3956 6.70752 23.3956 6.86799 23.5245 6.86799ZM30.4564 2.05398C30.4886 2.05398 30.4886 1.89351 30.4564 1.89351C30.3275 1.89351 30.3275 2.05398 30.4564 2.05398ZM10.2375 11.3611C10.3342 11.3611 10.4292 11.3611 10.3969 11.2648C10.3647 11.2327 10.2697 11.2327 10.2375 11.2648V11.3611ZM34.5965 33.1845L34.6287 33.3451H34.4998C34.4998 33.2488 34.4998 33.1845 34.5965 33.1845ZM31.3858 2.82421C31.3231 2.82421 31.3231 2.98468 31.3858 2.98468C31.4825 2.98468 31.4825 2.82421 31.3858 2.82421ZM33.9214 32.0293C34.0181 32.0293 34.0181 32.1897 33.9214 32.1897C33.857 32.1897 33.857 32.0293 33.9214 32.0293ZM32.8309 29.1729C32.7664 29.1729 32.7664 29.3334 32.8309 29.3334C32.9276 29.3334 32.9276 29.1729 32.8309 29.1729ZM29.3013 28.852C29.2369 28.852 29.2369 28.6914 29.3013 28.6914C29.3963 28.6914 29.3963 28.852 29.3013 28.852ZM30.0069 29.0766C29.9425 29.0766 29.9425 28.9162 30.0069 28.9162C30.1036 28.9162 30.1036 29.0766 30.0069 29.0766ZM27.953 8.85777C28.0496 8.85777 28.0496 9.01823 27.953 9.01823C27.8885 9.01823 27.8885 8.85777 27.953 8.85777ZM27.5357 5.71262C27.6324 5.71262 27.6324 5.87309 27.5357 5.87309C27.4713 5.87309 27.4713 5.71262 27.5357 5.71262ZM27.8885 3.01677C27.9852 3.01677 27.9852 2.8563 27.8885 2.8563C27.8241 2.8563 27.8241 3.01677 27.8885 3.01677ZM29.3641 5.19912C29.3013 5.19912 29.3013 5.03866 29.3641 5.03866C29.4608 5.03866 29.4608 5.19912 29.3641 5.19912ZM29.6219 27.0868C29.7186 27.0868 29.7186 26.9263 29.6219 26.9263C29.5574 26.9263 29.5574 27.0868 29.6219 27.0868ZM32.702 29.6863C32.6375 29.6863 32.6375 29.8468 32.702 29.8468C32.7986 29.8468 32.7986 29.6863 32.702 29.6863ZM30.8092 4.68564C30.7447 4.68564 30.7447 4.8461 30.8092 4.8461C30.9058 4.8461 30.9058 4.68564 30.8092 4.68564ZM19.3844 10.8476C19.4794 10.8476 19.4794 10.6871 19.3844 10.6871C19.32 10.6871 19.32 10.8476 19.3844 10.8476ZM23.3312 8.05544L23.3634 8.18382H23.2345L23.2023 8.05544H23.3312ZM30.263 7.41358C30.2952 7.41358 30.263 7.2531 30.2308 7.2531C30.1036 7.2852 30.1358 7.44567 30.263 7.41358ZM20.1222 28.8198C20.0578 28.8198 20.0578 28.6594 20.1222 28.6594C20.2189 28.6594 20.2189 28.8198 20.1222 28.8198ZM31.3553 2.407C31.4503 2.407 31.4503 2.24653 31.3553 2.24653C31.2908 2.24653 31.2908 2.407 31.3553 2.407ZM33.5687 32.8956C33.6653 32.8956 33.6653 33.0563 33.5687 33.0563C33.5042 33.0563 33.5042 32.8956 33.5687 32.8956ZM28.0174 2.59957C28.1124 2.59957 28.1124 2.4391 28.0174 2.4391C27.953 2.4391 27.953 2.59957 28.0174 2.59957ZM30.8414 5.42378C30.7769 5.42378 30.7769 5.26332 30.8414 5.26332C30.9381 5.26332 30.9381 5.42378 30.8414 5.42378ZM30.7769 35.3027C30.8736 35.3027 30.8736 35.4632 30.7769 35.4632C30.7125 35.4632 30.7125 35.3027 30.7769 35.3027ZM30.8736 5.7768C30.8092 5.7768 30.8092 5.93727 30.8736 5.93727C30.9686 5.93727 30.9686 5.7768 30.8736 5.7768ZM32.3814 33.1204C32.3169 33.1204 32.3169 32.9599 32.3814 32.9599C32.4781 32.9599 32.4781 33.1204 32.3814 33.1204ZM25.514 5.23123C25.609 5.23123 25.609 5.39169 25.514 5.39169C25.4496 5.39169 25.4496 5.23123 25.514 5.23123ZM30.0069 2.9205C30.0391 2.88841 30.0391 2.72795 30.0069 2.76003C29.878 2.76003 29.878 2.9205 30.0069 2.9205ZM33.6331 34.5005C33.5687 34.5005 33.5687 34.3399 33.6331 34.3399C33.7298 34.3399 33.7298 34.5005 33.6331 34.5005ZM33.6009 33.5697C33.6976 33.5697 33.6976 33.7301 33.6009 33.7301C33.5364 33.7301 33.5364 33.5697 33.6009 33.5697ZM33.5364 32.639C33.6331 32.639 33.6331 32.7995 33.5364 32.7995C33.472 32.7995 33.472 32.639 33.5364 32.639ZM27.2779 5.23123C27.2474 5.23123 27.2152 5.03866 27.2474 5.03866C27.3424 5.03866 27.3746 5.23123 27.2779 5.23123ZM33.6009 30.6492C33.6976 30.6171 33.6653 30.4567 33.5687 30.4888C33.5042 30.4888 33.5364 30.6492 33.6009 30.6492ZM28.9469 27.119C29.0435 27.119 29.0435 26.9584 28.9469 26.9584C28.8841 26.9906 28.8841 27.1511 28.9469 27.119ZM21.3739 7.67031C21.4706 7.63823 21.4384 7.47776 21.3417 7.50985C21.2772 7.50985 21.3095 7.67031 21.3739 7.67031ZM31.1942 2.56746C31.2908 2.56746 31.2908 2.407 31.1942 2.407C31.1297 2.4391 31.1297 2.59957 31.1942 2.56746ZM32.6375 32.9279C32.7342 32.9279 32.7342 33.0883 32.6375 33.0883C32.5748 33.1204 32.5748 32.9599 32.6375 32.9279ZM31.4825 36.2656C31.4503 36.2656 31.4503 36.1051 31.4825 36.1051C31.6114 36.0729 31.6436 36.2335 31.4825 36.2656ZM30.7125 29.9752C30.648 29.9752 30.648 29.8147 30.7125 29.8147C30.8092 29.7827 30.8092 29.9431 30.7125 29.9752ZM28.8841 8.98614C28.9791 8.98614 29.0113 9.14661 28.9146 9.14661C28.8519 9.14661 28.8197 9.01823 28.8841 8.98614ZM29.4608 28.5953C29.3963 28.5953 29.3963 28.4348 29.4608 28.4348C29.5574 28.4026 29.5574 28.5632 29.4608 28.5953ZM25.514 6.8359C25.5785 6.8359 25.609 6.99636 25.5462 6.99636C25.4496 7.02845 25.4173 6.86799 25.514 6.8359ZM4.4929 33.8585H4.58788C4.58788 33.8585 4.6201 33.8585 4.6201 33.8265C4.55734 33.8906 4.4929 33.9548 4.46068 34.019C4.42845 34.019 4.39622 34.019 4.39622 33.9869L4.4929 33.8585ZM34.2742 33.634C34.3709 33.6017 34.3709 33.7622 34.2742 33.7944C34.2115 33.7944 34.2115 33.634 34.2742 33.634ZM31.2586 3.24143C31.3553 3.24143 31.323 3.08097 31.2264 3.08097C31.1619 3.11306 31.1942 3.24143 31.2586 3.24143ZM23.8451 31.965C23.9095 31.965 23.8773 31.8046 23.8129 31.8046C23.7162 31.8366 23.7484 31.9971 23.8451 31.965ZM33.2159 31.5478C33.3125 31.5478 33.3448 31.7082 33.2481 31.7082C33.1836 31.7082 33.1514 31.5478 33.2159 31.5478ZM28.0497 2.8563C28.1446 2.8563 28.1124 2.69584 28.0174 2.69584C27.953 2.69584 27.9852 2.8563 28.0497 2.8563ZM21.8878 7.63823C21.9828 7.63823 21.9506 7.47776 21.8556 7.47776C21.7911 7.47776 21.8234 7.63823 21.8878 7.63823ZM29.3013 3.88329C29.3963 3.88329 29.3641 3.72283 29.2691 3.72283C29.2047 3.72283 29.2369 3.88329 29.3013 3.88329ZM30.6158 0.994899C30.7125 0.994899 30.6802 0.834416 30.5836 0.834416C30.5208 0.834416 30.5513 0.994899 30.6158 0.994899ZM32.2203 33.9869C32.2525 33.9869 32.2847 34.1474 32.2525 34.1474C32.1253 34.1474 32.0931 33.9869 32.2203 33.9869ZM30.7769 7.06054C30.7769 7.02845 30.7447 6.96427 30.7447 6.96427C30.6158 6.99636 30.6158 7.12474 30.7125 7.12474H30.7447C30.7769 7.12474 30.7769 7.09263 30.7769 7.06054ZM33.7942 29.879C33.7298 29.879 33.762 30.0395 33.8265 30.0395C33.9214 30.0395 33.8892 29.879 33.7942 29.879ZM31.9964 36.4901C31.8675 36.4901 31.8353 36.3297 31.9642 36.3297C31.9964 36.3297 32.0286 36.4901 31.9964 36.4901ZM30.3597 25.1292L30.2952 25.0328C30.1986 25.0649 30.1986 25.1292 30.2308 25.1933C30.2952 25.1933 30.3275 25.1612 30.3597 25.1292ZM30.3597 34.0832C30.4242 34.0832 30.4564 34.2437 30.3919 34.2437C30.2952 34.2437 30.263 34.1153 30.3597 34.0832ZM20.5717 8.7615C20.6039 8.7615 20.5717 8.60103 20.5394 8.60103C20.4105 8.60103 20.4428 8.7615 20.5717 8.7615ZM29.9102 28.5632C29.8136 28.5632 29.8136 28.4026 29.9102 28.4026C29.9747 28.4026 29.9747 28.5632 29.9102 28.5632ZM27.4391 5.29541C27.5035 5.29541 27.5035 5.45587 27.4391 5.45587C27.3424 5.45587 27.3424 5.29541 27.4391 5.29541ZM29.3319 6.03355C29.2369 6.03355 29.2369 5.87309 29.3319 5.87309C29.3963 5.87309 29.3963 6.03355 29.3319 6.03355ZM33.8265 31.2269C33.7298 31.2269 33.7298 31.3873 33.8265 31.3873C33.8892 31.3873 33.8892 31.2269 33.8265 31.2269ZM29.2369 4.26842C29.3014 4.26842 29.3014 4.42888 29.2369 4.42888C29.1402 4.42888 29.1402 4.26842 29.2369 4.26842ZM28.6908 6.3224C28.7552 6.3224 28.7552 6.48286 28.6908 6.48286C28.5941 6.48286 28.5941 6.3224 28.6908 6.3224ZM30.648 29.6222C30.5514 29.6222 30.5514 29.4618 30.648 29.4618C30.7125 29.4618 30.7125 29.6222 30.648 29.6222ZM32.3814 29.5259C32.4458 29.5259 32.4136 29.3654 32.3492 29.3654C32.2525 29.3654 32.2847 29.5259 32.3814 29.5259ZM4.94236 18.8388C4.84568 18.8388 4.84568 18.6783 4.94236 18.6783C5.00511 18.6783 5.00511 18.8388 4.94236 18.8388ZM31.0008 4.58935C30.9058 4.58935 30.9058 4.74981 31.0008 4.74981C31.0653 4.74981 31.0653 4.58935 31.0008 4.58935ZM21.5333 7.47776C21.5978 7.47776 21.5978 7.31729 21.5333 7.31729C21.4383 7.31729 21.4383 7.47776 21.5333 7.47776ZM34.2437 34.3078C34.3065 34.3078 34.3065 34.4682 34.2437 34.4682C34.147 34.4682 34.147 34.3078 34.2437 34.3078ZM32.8309 30.4245C32.8953 30.4245 32.8953 30.264 32.8309 30.264C32.7342 30.264 32.7342 30.4245 32.8309 30.4245ZM26.6368 34.4682C26.5401 34.4682 26.5401 34.6287 26.6368 34.6287C26.7013 34.6287 26.7013 34.4682 26.6368 34.4682ZM30.8736 7.22101C30.7769 7.22101 30.8091 7.38147 30.9058 7.38147C30.9686 7.38147 30.9381 7.22101 30.8736 7.22101ZM30.8414 6.54706C30.7447 6.54706 30.7447 6.70752 30.8414 6.70752C30.9058 6.70752 30.9058 6.54706 30.8414 6.54706ZM29.5252 34.051C29.5897 34.051 29.6219 34.2116 29.5574 34.2116C29.4608 34.2116 29.4286 34.051 29.5252 34.051ZM31.5469 2.31073C31.6114 2.31073 31.6114 2.15026 31.5469 2.15026C31.4503 2.15026 31.4503 2.31073 31.5469 2.31073ZM25.2884 5.52007C25.3529 5.52007 25.3529 5.68053 25.2884 5.68053C25.1918 5.68053 25.1918 5.52007 25.2884 5.52007ZM33.0242 34.019C32.9276 34.019 32.9276 33.8585 33.0242 33.8585C33.087 33.8585 33.087 34.019 33.0242 34.019ZM32.992 33.4413C32.8953 33.4413 32.8953 33.2808 32.992 33.2808C33.0547 33.2808 33.0547 33.4413 32.992 33.4413ZM33.3126 34.0832C33.2159 34.0832 33.1837 33.9228 33.2803 33.9228C33.3448 33.9228 33.377 34.0832 33.3126 34.0832ZM30.1663 30.1679C30.2308 30.1356 30.2308 30.2963 30.1663 30.3283C30.0713 30.3283 30.0713 30.1679 30.1663 30.1679ZM28.9146 27.4078C28.9791 27.3756 28.9791 27.5361 28.9146 27.5683C28.8197 27.5683 28.8197 27.4078 28.9146 27.4078ZM26.7013 6.09775C26.8302 6.09775 26.8607 6.25822 26.7335 6.25822C26.7013 6.25822 26.669 6.09775 26.7013 6.09775ZM30.2308 33.5376C30.2308 33.6017 30.2308 33.666 30.1986 33.666C30.1036 33.666 30.0713 33.5056 30.1663 33.5056C30.1986 33.5056 30.1986 33.5376 30.2308 33.5376ZM27.3424 25.5785L27.183 25.4821C27.2474 25.4821 27.2779 25.4501 27.3102 25.418L27.3424 25.4821L27.4391 25.5785H27.3424ZM23.7806 21.631C23.9095 21.631 23.9095 21.7915 23.7806 21.7915C23.7484 21.7915 23.7484 21.631 23.7806 21.631ZM29.7491 5.26332C29.7186 5.26332 29.7186 5.42378 29.7491 5.42378C29.878 5.42378 29.878 5.26332 29.7491 5.26332ZM31.1619 31.0344C31.1297 31.0344 31.1297 30.8739 31.1619 30.8739C31.2908 30.8739 31.2908 31.0344 31.1619 31.0344ZM34.4031 34.2757C34.3709 34.2757 34.3709 34.1153 34.4031 34.1153C34.532 34.1153 34.532 34.2757 34.4031 34.2757ZM22.8817 7.15683C22.8817 7.25311 22.785 7.31729 22.6578 7.41358C22.6578 7.31729 22.785 7.25311 22.8817 7.15683ZM24.0367 32.0614C24.0045 32.0614 24.0045 32.2218 24.0367 32.2218C24.1656 32.2218 24.1656 32.0614 24.0367 32.0614ZM31.418 31.0022C31.3858 31.0022 31.3858 30.8417 31.418 30.8417C31.5469 30.8417 31.5469 31.0022 31.418 31.0022ZM22.0795 9.49965C21.9828 9.53174 21.9828 9.37127 22.0795 9.33918C22.1439 9.33918 22.1439 9.49965 22.0795 9.49965ZM34.2742 31.3873C34.4031 31.3553 34.4031 31.1948 34.2742 31.2269C34.2437 31.2269 34.2437 31.3873 34.2742 31.3873ZM27.2152 24.3268C27.1507 24.3268 27.1507 24.4552 27.2152 24.4552C27.3746 24.4552 27.3102 24.3268 27.2152 24.3268ZM30.1036 6.7717C30.2308 6.73961 30.2308 6.90008 30.1036 6.93217C30.0714 6.93217 30.0714 6.7717 30.1036 6.7717ZM32.1575 31.7405C32.1253 31.6121 32.2847 31.6121 32.317 31.7405C32.317 31.7725 32.1575 31.7725 32.1575 31.7405ZM34.0181 31.9009C34.1148 31.9009 34.1148 31.7725 34.0181 31.7725C33.9215 31.7725 33.9215 31.9009 34.0181 31.9009ZM33.472 34.3721C33.377 34.3721 33.377 34.2437 33.472 34.2437C33.5687 34.2437 33.5687 34.3721 33.472 34.3721ZM30.3919 2.98468C30.5208 2.98468 30.5208 2.98468 30.5208 2.88841C30.5208 2.79212 30.2952 2.98468 30.3919 2.98468ZM34.7881 36.779C34.7881 36.8112 34.6287 36.779 34.6287 36.7469C34.6609 36.6506 34.8204 36.6506 34.7881 36.779ZM21.0839 8.31219C21.1805 8.31219 21.1805 8.18382 21.0839 8.18382C20.9889 8.18382 20.9889 8.31219 21.0839 8.31219ZM32.8309 31.7405L32.9598 31.5798V31.7082L32.8309 31.8366V31.7405ZM31.8675 29.6543C31.8675 29.558 31.7403 29.558 31.7403 29.6543C31.7403 29.7506 31.8675 29.7506 31.8675 29.6543ZM31.6114 0.545592C31.7081 0.513486 31.7081 0.38511 31.6114 0.417217C31.5147 0.417217 31.5147 0.545592 31.6114 0.545592ZM31.2908 29.3654C31.3231 29.3334 31.3231 29.1409 31.2908 29.1729C31.1942 29.1729 31.1942 29.3654 31.2908 29.3654ZM33.1514 30.1356V30.232L33.2481 30.3283H33.3448L33.1514 30.1356ZM30.7769 30.6492V30.7455H30.6158C30.6158 30.6492 30.7125 30.6492 30.7769 30.6492ZM26.8302 24.7119L26.9251 24.8403H27.0218C27.0218 24.8083 26.9574 24.744 26.9251 24.7119H26.8302ZM27.4391 31.3873C27.3424 31.3873 27.3101 31.2269 27.4068 31.2269C27.439 31.2269 27.4713 31.3873 27.4391 31.3873ZM31.5147 33.3451C31.547 33.3451 31.5792 33.5056 31.5469 33.5056C31.4503 33.5056 31.4181 33.3451 31.5147 33.3451ZM30.2308 34.693C30.2952 34.6609 30.3275 34.7893 30.263 34.8214C30.1663 34.8214 30.1358 34.693 30.2308 34.693ZM34.532 32.1575C34.4354 32.1575 34.4676 32.318 34.5642 32.318C34.5965 32.318 34.5643 32.1575 34.532 32.1575ZM29.9425 5.00657C29.8458 5.00657 29.878 5.16703 29.9747 5.16703C30.0069 5.16703 29.9747 5.00657 29.9425 5.00657ZM29.8136 2.15026C29.8458 2.15026 29.8136 1.98978 29.7813 1.98978C29.6864 1.98978 29.7186 2.15026 29.8136 2.15026ZM24.1334 7.50985C24.1012 7.50985 24.069 7.34938 24.1012 7.34938C24.1979 7.34938 24.2301 7.50985 24.1334 7.50985ZM29.3013 2.63166C29.2047 2.63166 29.2369 2.79212 29.3319 2.79212C29.3641 2.79212 29.3319 2.63166 29.3013 2.63166ZM29.9747 6.93217C30.0714 6.93217 30.0714 7.02845 29.9747 7.02845C29.8458 7.02845 29.8458 6.93217 29.9747 6.93217ZM29.6541 3.94749C29.6864 3.94749 29.6864 4.10795 29.6541 4.10795C29.5575 4.10795 29.5575 3.94749 29.6541 3.94749ZM4.65233 33.666C4.65233 33.6339 4.68456 33.6339 4.71679 33.6017C4.74901 33.6017 4.749 33.634 4.78123 33.634L4.6201 33.8265C4.65232 33.7944 4.65233 33.6981 4.65233 33.666ZM20.3783 28.9162C20.3783 28.8198 20.475 28.8198 20.475 28.9162C20.475 29.0445 20.3783 29.0445 20.3783 28.9162ZM29.3641 28.3064C29.4286 28.3064 29.4608 28.4348 29.3963 28.4348C29.3013 28.4348 29.2691 28.3064 29.3641 28.3064ZM31.0653 29.7827C31.0975 29.7827 31.0975 29.9431 31.0653 29.9431C30.9686 29.9431 30.9686 29.7827 31.0653 29.7827ZM5.13401 37.8702C5.03733 37.8702 5.06956 37.9986 5.10179 38.0307C5.19847 38.0307 5.16624 37.8702 5.13401 37.8702ZM29.5574 4.39679C29.6541 4.39679 29.6863 4.49308 29.5897 4.49308C29.4608 4.52517 29.4285 4.42888 29.5574 4.39679ZM32.3814 36.0408C32.3492 36.0408 32.3492 35.8804 32.3814 35.8804C32.4781 35.8804 32.4781 36.0408 32.3814 36.0408ZM26.7657 4.26842C26.8607 4.26842 26.8607 4.10795 26.7657 4.10795C26.7335 4.10795 26.7335 4.26842 26.7657 4.26842ZM30.8092 7.63823C30.9058 7.63823 30.9058 7.47776 30.8092 7.47776C30.7769 7.47776 30.7769 7.63823 30.8092 7.63823ZM23.4278 8.85777C23.3956 8.85777 23.3956 8.6973 23.4278 8.6973C23.5245 8.6973 23.5245 8.85777 23.4278 8.85777ZM30.6803 5.3596C30.648 5.39169 30.648 5.23123 30.6803 5.19912C30.7769 5.19912 30.7769 5.3596 30.6803 5.3596ZM24.0367 32.4464C24.0045 32.4464 24.0367 32.5748 24.069 32.5748C24.1979 32.5748 24.1656 32.4464 24.0367 32.4464ZM1.1228 37.453C1.09058 37.485 1.1228 37.5814 1.15502 37.6134L1.21948 37.5493C1.21948 37.4851 1.18725 37.453 1.1228 37.453ZM33.087 36.426C33.0242 36.426 32.992 36.3297 33.0242 36.2656L33.1514 36.3617C33.1192 36.394 33.1192 36.426 33.087 36.426ZM32.7986 34.5325V34.5966C32.7664 34.5966 32.7342 34.5646 32.702 34.5646V34.5325C32.702 34.4041 32.7986 34.4041 32.7986 34.5325ZM24.1012 7.50985C24.1334 7.50985 24.1334 7.63823 24.1012 7.63823C23.9723 7.63823 23.9723 7.50985 24.1012 7.50985ZM23.8129 7.2531C23.8451 7.2531 23.8451 7.38147 23.8129 7.38147C23.684 7.41358 23.684 7.2852 23.8129 7.2531ZM30.4886 1.79723C30.5836 1.76514 30.5836 1.60467 30.4886 1.63676C30.4564 1.63676 30.4564 1.79723 30.4886 1.79723ZM34.8204 32.5748L34.8526 32.6711L34.9815 32.639L34.8204 32.5106V32.5748ZM30.5836 31.965C30.5208 31.965 30.5208 31.8366 30.5836 31.8366C30.6802 31.8366 30.6802 31.965 30.5836 31.965ZM27.3746 8.79359C27.3746 8.72939 27.5035 8.72939 27.5035 8.79359C27.5035 8.88988 27.3746 8.88988 27.3746 8.79359ZM23.1378 31.6121C23.0428 31.6121 23.0428 31.7405 23.1378 31.7405C23.2023 31.7405 23.2023 31.6121 23.1378 31.6121ZM2.95117 38.2875V38.4159C2.9834 38.4159 3.01562 38.3836 3.04785 38.3836V38.2554C3.01562 38.2875 2.9834 38.2875 2.95117 38.2875ZM26.7657 24.5835C26.8302 24.5835 26.8302 24.4552 26.7657 24.4552C26.669 24.4552 26.669 24.5835 26.7657 24.5835ZM33.2159 31.1626C33.2159 31.2589 33.3126 31.2589 33.3126 31.1626C33.2803 31.0344 33.1836 31.0344 33.2159 31.1626ZM24.6795 22.0481C24.7118 22.016 24.7118 21.8876 24.6795 21.9199C24.5506 21.9199 24.5506 22.0481 24.6795 22.0481ZM30.5513 5.80891C30.4564 5.80891 30.4564 5.90518 30.5513 5.90518C30.6802 5.87309 30.6802 5.7768 30.5513 5.80891ZM27.8563 5.26332L27.6952 5.45587V5.39169C27.6952 5.3596 27.7274 5.3275 27.7596 5.26332H27.8563ZM31.8353 31.5157C31.8353 31.5478 31.7081 31.5478 31.7081 31.5157C31.7081 31.3873 31.8353 31.3873 31.8353 31.5157ZM27.2779 4.49308C27.3102 4.49308 27.3102 4.62144 27.2779 4.62144C27.1507 4.62144 27.1507 4.52517 27.2779 4.49308ZM1.47559 37.5814V37.4209C1.34669 37.453 1.34669 37.6134 1.47559 37.5814ZM34.532 31.3553C34.4998 31.3553 34.4998 31.4837 34.532 31.4837C34.6609 31.4837 34.6609 31.3553 34.532 31.3553ZM20.3139 28.7878C20.3783 28.7878 20.3783 28.9162 20.3139 28.9162C20.2189 28.9482 20.2189 28.8198 20.3139 28.7878ZM35.2698 32.8956C35.2376 32.7995 35.1087 32.7995 35.1409 32.8956C35.1409 32.9599 35.2698 32.9599 35.2698 32.8956ZM31.9319 32.7352L31.7725 32.5748H31.8997C31.8997 32.6068 31.9319 32.639 31.9319 32.6711V32.7352ZM24.1656 32.318L24.2623 32.4464V32.318L24.1656 32.2218V32.318ZM1.82837 39.5712C1.8606 39.6033 1.95727 39.539 1.95727 39.4749C1.89282 39.4428 1.82837 39.4749 1.82837 39.5712ZM24.4862 6.38659C24.4862 6.48286 24.5829 6.48286 24.5829 6.38659C24.5506 6.29031 24.454 6.29031 24.4862 6.38659ZM28.4346 1.63676C28.4024 1.54047 28.3058 1.54047 28.338 1.63676C28.338 1.73305 28.4346 1.73305 28.4346 1.63676ZM28.4024 7.50985C28.4974 7.50985 28.4974 7.60614 28.4024 7.60614C28.3057 7.63823 28.3057 7.54194 28.4024 7.50985ZM30.938 2.4391L30.648 2.76003H30.7125L30.938 2.4391ZM23.5873 7.89498V7.79869C23.5873 7.7666 23.684 7.67031 23.7162 7.63823V7.67031L23.5873 7.89498ZM20.9567 8.82568C21.0211 8.82568 20.9889 8.72939 20.9244 8.72939C20.8278 8.7615 20.86 8.85777 20.9567 8.82568ZM23.6517 8.44057C23.6517 8.56893 23.6517 8.56893 23.6195 8.56893C23.4923 8.56893 23.6517 8.34428 23.6517 8.44057ZM32.0931 31.5157C32.0931 31.6121 31.9642 31.6121 31.9642 31.5157C31.9642 31.4837 32.0931 31.4837 32.0931 31.5157ZM29.4285 4.65355C29.4608 4.65355 29.4608 4.78192 29.4285 4.78192C29.3319 4.78192 29.3319 4.65355 29.4285 4.65355ZM31.6114 34.9818C31.5147 34.9818 31.5147 34.8855 31.5792 34.8534L31.6436 34.9175C31.6436 34.9498 31.6436 34.9818 31.6114 34.9818ZM31.2908 30.7133C31.2908 30.6171 31.3858 30.5851 31.3858 30.6813C31.3858 30.7455 31.2908 30.7776 31.2908 30.7133ZM1.54004 38.127V38.2232C1.60449 38.2232 1.63672 38.1591 1.63672 38.0948C1.60449 38.0627 1.60449 38.0948 1.54004 38.127ZM31.0008 6.61124C31.0975 6.61124 31.0975 6.61124 31.0975 6.54706C31.0975 6.45077 30.9058 6.61124 31.0008 6.61124ZM30.7125 1.4121C30.8092 1.4121 30.8092 1.4121 30.8092 1.34792C30.8092 1.25163 30.6158 1.4121 30.7125 1.4121ZM6.28904 34.1474C6.35349 34.1474 6.38572 34.2437 6.32127 34.2437C6.22459 34.2437 6.19406 34.1474 6.28904 34.1474ZM31.9964 35.2386C31.9964 35.2707 32.0286 35.3027 32.0608 35.3348V35.3991C31.9642 35.3991 31.932 35.3027 31.9964 35.2386ZM34.8526 33.1845L35.0137 33.1524C35.0137 33.2167 34.8848 33.2488 34.8526 33.2488V33.1845ZM26.4435 34.3721C26.3807 34.3721 26.3807 34.4682 26.4435 34.4682C26.5401 34.4682 26.5401 34.3721 26.4435 34.3721ZM28.9791 3.04888C28.9791 3.11306 29.0758 3.11306 29.0758 3.04888C29.0758 2.95259 28.9791 2.95259 28.9791 3.04888ZM32.4781 31.6121C32.4781 31.5157 32.5425 31.4837 32.5425 31.5798C32.5748 31.7082 32.5103 31.7403 32.4781 31.6121ZM32.0931 34.3078C32.0608 34.2757 32.0286 34.2437 31.9964 34.2437C31.9964 34.2116 31.9964 34.1794 32.0286 34.1794C32.0931 34.1474 32.1253 34.2437 32.0931 34.3078ZM24.069 6.51495C24.1656 6.51495 24.1656 6.51495 24.1656 6.41868C24.1334 6.3224 24.0367 6.51495 24.069 6.51495ZM32.4459 29.879C32.3814 29.879 32.3814 29.9752 32.4459 29.9752C32.5425 29.9431 32.5425 29.8468 32.4459 29.879ZM29.5897 29.2371C29.5897 29.1729 29.6864 29.1729 29.6864 29.2371C29.6864 29.3334 29.5897 29.3334 29.5897 29.2371ZM27.4713 6.12984C27.4713 6.22611 27.3746 6.22611 27.3746 6.12984C27.3746 6.06564 27.4713 6.06564 27.4713 6.12984ZM30.2308 26.7979C30.1358 26.7979 30.1358 26.8943 30.2308 26.8943C30.2952 26.8943 30.2952 26.7979 30.2308 26.7979ZM32.1898 6.22611C32.2525 6.22611 32.2525 6.12984 32.1898 6.12984C32.0931 6.12984 32.0931 6.22611 32.1898 6.22611ZM29.108 28.0496L29.2047 28.146H29.108L29.0113 28.0496H29.108ZM32.8953 33.0883H32.7342C32.7342 33.024 32.8309 33.024 32.8953 33.024V33.0883ZM34.917 34.1794C34.9493 34.1474 34.9493 34.2757 34.917 34.3078C34.8204 34.3078 34.8204 34.1794 34.917 34.1794ZM8.72799 37.0358C8.66524 37.1 8.72799 37.1642 8.76021 37.1642C8.76021 37.1321 8.79244 37.1 8.82467 37.0678C8.76022 37.0678 8.76022 37.0037 8.72799 37.0358ZM30.3275 8.18382C30.3275 8.21591 30.4241 8.21591 30.4241 8.18382C30.4241 8.05544 30.3275 8.05544 30.3275 8.18382ZM33.2803 30.7776C33.2803 30.906 33.377 30.906 33.377 30.7776C33.377 30.7455 33.2803 30.7455 33.2803 30.7776ZM31.7725 1.70094C31.8353 1.70094 31.8353 1.60467 31.7725 1.60467C31.6758 1.63676 31.6758 1.73305 31.7725 1.70094ZM23.5873 7.41358C23.555 7.41358 23.555 7.2852 23.5873 7.2852C23.6839 7.2852 23.6839 7.41358 23.5873 7.41358ZM22.9784 8.47266C22.9462 8.47266 22.9462 8.37637 22.9784 8.37637C23.1073 8.37637 23.1073 8.47266 22.9784 8.47266ZM27.3424 24.6477C27.3424 24.5515 27.2152 24.5515 27.2152 24.6477C27.2152 24.6799 27.3424 24.6799 27.3424 24.6477ZM31.6436 31.7725C31.7403 31.7725 31.7403 31.9009 31.6436 31.9009C31.6114 31.9009 31.6114 31.7725 31.6436 31.7725ZM31.4503 31.2589C31.4825 31.2589 31.5469 31.3232 31.5792 31.3553H31.4503L31.418 31.2589H31.4503ZM31.6436 4.01167C31.7081 4.01167 31.7081 4.01167 31.7081 3.88329C31.7081 3.8512 31.5469 4.01167 31.6436 4.01167ZM1.95727 37.3246C1.86059 37.3246 1.89282 37.4209 1.92505 37.453C1.9895 37.453 1.98949 37.3567 1.95727 37.3246ZM30.8092 3.4019C30.8092 3.36981 30.6802 3.53027 30.7125 3.53027C30.8092 3.53027 30.8092 3.53027 30.8092 3.4019ZM31.1297 2.27862C31.1942 2.24653 31.1942 2.15026 31.1297 2.18235C31.033 2.18235 31.033 2.27862 31.1297 2.27862ZM31.033 31.1626L31.0653 31.291H30.938L31.033 31.1626ZM32.2203 1.02699C32.2203 0.930703 32.1575 0.930703 32.1575 1.02699C32.1575 1.15536 32.2203 1.15536 32.2203 1.02699ZM4.8779 38.6725C4.91013 38.6725 4.91014 38.6725 4.91014 38.7047C4.91014 38.7047 4.94235 38.7047 4.97458 38.6725C5.00511 38.5763 4.8779 38.5442 4.8779 38.6725ZM31.7403 32.1575C31.8675 32.1575 31.8675 32.2218 31.7403 32.2218C31.6436 32.2218 31.6436 32.1575 31.7403 32.1575ZM24.839 32.5427C24.744 32.5427 24.744 32.6068 24.839 32.6068C24.9679 32.6068 24.9679 32.5427 24.839 32.5427ZM32.1575 29.3013C32.1575 29.2691 32.1253 29.2371 32.0931 29.205H31.9964L32.0931 29.3013H32.1575ZM32.992 32.2539C33.0242 32.3502 33.0242 32.3502 32.9598 32.3502C32.8631 32.3502 32.992 32.1575 32.992 32.2539ZM2.1167 37.0678C2.14893 37.1642 2.1167 37.1321 2.1167 37.2283C2.21338 37.1962 2.21338 37.0358 2.1167 37.0678ZM8.43966 36.5544C8.37521 36.5865 8.37521 36.6185 8.37521 36.6828C8.47189 36.6828 8.47189 36.5865 8.43966 36.5544ZM27.9207 8.05544C27.8885 7.92707 27.9852 7.92707 28.0174 8.05544C28.0174 8.08753 27.9207 8.08753 27.9207 8.05544ZM20.2189 29.1087C20.2189 29.0766 20.3139 29.0445 20.3139 29.0766C20.3461 29.1729 20.2494 29.205 20.2189 29.1087ZM29.2691 6.29031L29.2369 6.12984H29.3319L29.2691 6.29031ZM33.1192 32.6068H32.9598L33.0242 32.5106L33.1192 32.6068ZM31.9642 1.28374C32.0609 1.28374 32.0608 1.28374 32.0608 1.18745C32.0608 1.15536 31.8997 1.28374 31.9642 1.28374ZM28.1769 5.16703L28.1124 5.26332L28.0174 5.16703H28.1769ZM7.99021 37.3889H8.1191V37.3246C8.02242 37.3246 7.99021 37.3246 7.99021 37.3889ZM35.3343 32.2218L35.2376 32.1255V32.2218L35.3665 32.2859L35.3343 32.2218ZM31.1619 4.74981L31.0653 4.94239L31.2586 4.71773L31.1619 4.74981ZM31.3858 31.0985C31.3858 31.1305 31.2908 31.1628 31.2908 31.1305C31.2908 31.0344 31.3858 31.0022 31.3858 31.0985ZM25.3207 16.9453C25.2562 17.0096 25.1918 17.0096 25.1612 17.0096L25.224 16.9132C25.2562 16.9453 25.2884 16.9453 25.3207 16.9453ZM26.0262 5.3596C26.1229 5.3596 26.1229 5.3596 26.1229 5.26332C26.1229 5.19912 25.9635 5.39169 26.0262 5.3596ZM31.8353 2.69584C31.8997 2.69584 31.8997 2.69584 31.8997 2.63166C31.8675 2.53537 31.7403 2.72793 31.8353 2.69584ZM23.2667 8.95405L23.2345 9.11452L23.1378 9.14661L23.2667 8.95405ZM28.4974 3.24143C28.5296 3.33772 28.5941 3.33772 28.5618 3.24143C28.5618 3.14514 28.4974 3.14514 28.4974 3.24143ZM22.6578 30.906C22.6256 30.8097 22.5611 30.8417 22.5934 30.938C22.5934 31.0022 22.6578 30.9701 22.6578 30.906ZM25.7379 4.87819C25.7379 4.97448 25.7379 4.97448 25.6735 4.97448C25.5785 4.97448 25.7379 4.8461 25.7379 4.87819ZM32.4459 30.8097C32.4459 30.8417 32.3492 30.8417 32.3492 30.8097C32.3492 30.7133 32.4459 30.7133 32.4459 30.8097ZM21.7267 7.73451C21.7267 7.63822 21.63 7.63822 21.63 7.73451C21.63 7.7666 21.7267 7.7666 21.7267 7.73451ZM30.7125 30.906C30.7125 30.938 30.6158 30.938 30.6158 30.906C30.6158 30.8097 30.7125 30.8097 30.7125 30.906ZM28.338 3.49818C28.338 3.53027 28.4346 3.53027 28.4346 3.49818C28.4346 3.4019 28.338 3.4019 28.338 3.49818ZM22.6901 8.60103C22.6901 8.63312 22.69 8.63312 22.5934 8.63312C22.5289 8.66521 22.6901 8.47266 22.6901 8.60103ZM2.21337 35.0459C2.14892 35.0459 2.11671 35.0782 2.14893 35.1423C2.24561 35.1423 2.21337 35.0782 2.21337 35.0459ZM33.5364 32.318C33.6331 32.318 33.6331 32.3822 33.5364 32.3822C33.472 32.3822 33.472 32.318 33.5364 32.318ZM31.033 35.5916C30.9686 35.5916 30.9686 35.5274 31.033 35.5274C31.1297 35.5274 31.1297 35.5916 31.033 35.5916ZM25.7057 30.7455C25.7057 30.8096 25.7057 30.8417 25.8023 30.8739C25.7057 30.906 25.6734 30.8096 25.609 30.7776C25.609 30.7776 25.6412 30.7776 25.7057 30.7455ZM28.6263 33.9228C28.5941 33.9228 28.5619 33.8906 28.5296 33.8585C28.5619 33.8585 28.5941 33.8265 28.6263 33.8265C28.6585 33.8265 28.6585 33.9228 28.6263 33.9228ZM33.2803 33.666C33.2803 33.5697 33.3448 33.5697 33.3448 33.666C33.3448 33.7301 33.2803 33.7301 33.2803 33.666ZM28.1124 4.49308C28.1124 4.58935 28.0174 4.58935 28.0174 4.49308C27.9852 4.46097 28.0802 4.46097 28.1124 4.49308ZM28.7874 6.99636C28.7874 7.09263 28.723 7.09263 28.723 6.99636C28.723 6.93217 28.7874 6.93217 28.7874 6.99636ZM31.1297 35.6879C31.1619 35.6879 31.1619 35.7841 31.1297 35.7841C31.033 35.7841 31.033 35.6879 31.1297 35.6879ZM32.7664 36.426C32.7342 36.3617 32.7987 36.3617 32.8309 36.426C32.8309 36.5224 32.7664 36.5224 32.7664 36.426ZM26.0584 24.2306V24.1984L26.1229 24.2306V24.3588C26.0907 24.3268 26.0584 24.2626 26.0584 24.2306ZM31.418 35.9447C31.4503 35.9447 31.4503 36.0408 31.418 36.0408C31.3231 36.0408 31.3231 35.9447 31.418 35.9447ZM31.4825 29.4938H31.6114L31.4503 29.3975L31.4825 29.4938ZM29.9425 28.2744C29.9425 28.3064 29.9425 28.3385 29.9747 28.3705L29.8136 28.3064L29.9425 28.2744ZM28.7552 33.9869H28.8841V34.0832L28.7552 33.9869ZM19.5116 28.3385V28.2101L19.6083 28.3385H19.5116ZM28.1446 7.67031C28.1769 7.67031 28.2091 7.63823 28.2413 7.63823L28.1446 7.79869V7.67031ZM33.2803 32.318H33.377V32.3822H33.2803V32.318ZM34.147 34.3078C34.147 34.3399 34.147 34.3399 34.0503 34.3399C33.9859 34.3399 34.147 34.2116 34.147 34.3078ZM23.555 7.22101C23.5873 7.22101 23.5873 7.2852 23.555 7.2852C23.4278 7.2852 23.4278 7.22101 23.555 7.22101ZM32.9275 31.965C32.9275 31.8366 32.992 31.8366 32.992 31.965C32.992 31.9971 32.9275 31.9971 32.9275 31.965ZM34.0826 31.3873C34.0826 31.4194 34.147 31.4194 34.147 31.3873C34.147 31.2589 34.0826 31.2589 34.0826 31.3873ZM6.38571 34.3078H6.41794C6.38572 34.3399 6.35349 34.4041 6.35349 34.4682C6.32126 34.4041 6.32126 34.3078 6.38571 34.3078ZM31.9319 35.752H31.8353V35.6558L31.9319 35.752ZM23.9095 6.67543V6.57915L23.8129 6.73961L23.9095 6.67543ZM6.61129 35.4632L6.70627 35.5595V35.4632H6.61129ZM22.0795 8.40846L22.1761 8.50475H22.0795V8.40846ZM23.9095 32.0614H24.0045L23.9095 31.965V32.0614ZM29.1402 3.88329L29.0436 3.97958H29.1402V3.88329ZM29.6219 34.3078V34.2116L29.7186 34.2757L29.6219 34.3078ZM4.33177 34.3399C4.29954 34.3399 4.29954 34.2437 4.33177 34.2437H4.39622L4.33177 34.3399ZM27.6629 3.81911C27.6629 3.72283 27.6002 3.72283 27.6002 3.81911C27.6002 3.8512 27.6629 3.8512 27.6629 3.81911ZM29.9747 34.693V34.5646L30.0391 34.693H29.9747ZM20.1222 29.0766L20.0578 28.9482H20.1222V29.0766ZM28.5941 8.02335L28.4974 7.89498L28.5296 8.02335H28.5941ZM31.1297 30.6171C31.0975 30.5208 31.1297 30.5208 31.1619 30.6171C31.1619 30.7133 31.1297 30.7133 31.1297 30.6171ZM26.6368 15.2765C26.5724 15.2765 26.5401 15.2443 26.5401 15.2122C26.5724 15.2443 26.6368 15.2443 26.669 15.2443C26.669 15.2443 26.669 15.2765 26.6368 15.2765ZM29.5252 6.00146C29.5252 6.09775 29.493 6.12984 29.493 6.03355C29.493 5.96937 29.5252 5.93727 29.5252 6.00146ZM31.3553 30.4245C31.3553 30.3283 31.3858 30.3283 31.3858 30.4245C31.3858 30.4888 31.3553 30.4888 31.3553 30.4245ZM31.033 29.1087C31.033 29.1729 31.0653 29.1729 31.0653 29.1087C31.0653 29.0125 31.033 29.0125 31.033 29.1087ZM31.2586 3.62656C31.3553 3.62656 31.3553 3.59445 31.2586 3.59445C31.1942 3.59445 31.1942 3.62656 31.2586 3.62656ZM28.2735 9.85267V9.94895H28.2091L28.2735 9.85267ZM30.1663 27.4078V27.472H30.263L30.1663 27.4078ZM24.1979 32.639H24.2945L24.1979 32.5748V32.639ZM6.35349 35.2386V35.3348H6.41794L6.35349 35.2386ZM27.6002 2.63166L27.5357 2.72793H27.6002V2.63166ZM33.1837 33.5056L33.0547 33.4413H33.1514L33.1837 33.5056ZM30.6803 30.232V30.1356L30.7447 30.232H30.6803ZM28.2091 5.841V5.7768H28.3057L28.2091 5.841ZM21.9183 8.66521C22.015 8.63312 22.015 8.66521 21.9183 8.6973C21.8556 8.6973 21.8556 8.66521 21.9183 8.66521ZM30.648 1.60467V1.66885L30.7447 1.60467H30.648ZM31.033 29.4297C31.0652 29.5259 31.0975 29.5259 31.0653 29.4297C31.0653 29.3654 31.033 29.3654 31.033 29.4297ZM0.062759 35.3027V35.2064H0L0.062759 35.3027ZM38.9605 43.9038C38.9927 43.9359 39.0249 43.9679 39.0249 44V43.9038H38.9605ZM29.3641 2.95259H29.3319L29.2369 3.11305L29.3641 2.95259ZM23.6517 29.205C23.6517 29.205 23.684 29.205 23.7162 29.1729V29.205C23.7162 29.2691 23.684 29.2371 23.6517 29.205ZM34.147 32.5427H34.2115L34.147 32.6068V32.5427ZM23.8773 31.1626C23.8773 31.2269 23.9095 31.2589 23.9417 31.2589L23.8773 31.1626ZM25.7379 5.90518C25.7057 5.90518 25.6735 5.93727 25.6735 5.96938L25.7701 5.90518H25.7379ZM19.7694 28.4348L19.6727 28.4026H19.7694V28.4348ZM27.3424 11.4894V11.4573C27.3102 11.4573 27.2779 11.4894 27.2474 11.4894H27.3424ZM4.39622 34.0832C4.364 34.0832 4.36399 34.1153 4.33177 34.1153C4.33177 34.1153 4.33178 34.0832 4.364 34.051C4.364 34.051 4.364 34.0832 4.39622 34.0832ZM29.5897 2.50328L29.5574 2.59957H29.5897V2.50328ZM33.5364 31.0022H33.4398L33.5364 31.0344V31.0022ZM32.3814 34.4362C32.4136 34.4362 32.4136 34.4362 32.4459 34.4682C32.4136 34.4682 32.3814 34.4362 32.3492 34.4362H32.3814ZM38.9282 43.8396V43.8075H38.896L38.9282 43.8396ZM29.2047 34.3399L29.2369 34.3721H29.2047V34.3399ZM4.33177 34.3721L4.29955 34.4041V34.3721H4.33177ZM29.9747 5.39169C30.0069 5.3596 30.0069 5.3275 30.0069 5.3275L29.9747 5.39169ZM15.0832 28.5953C15.0832 28.5953 15.0832 28.5632 15.1154 28.5632L15.0832 28.5953ZM28.9146 34.1474L28.9469 34.1794C28.9146 34.1794 28.9146 34.1474 28.9146 34.1474ZM22.8173 30.6171C22.8173 30.6492 22.8495 30.6492 22.8495 30.6813C22.8173 30.6492 22.8173 30.6492 22.8173 30.6171ZM30.9058 4.8461C30.9058 4.87819 30.9058 4.87819 30.8736 4.87819L30.9058 4.8461Z" fill="white"/>
</svg>
